<svg width="301" height="170" viewBox="0 0 301 170" fill="none" xmlns="http://www.w3.org/2000/svg">
<g filter="url(#filter0_ddd_1_114)">
<path fill-rule="evenodd" clip-rule="evenodd" d="M233.44 39.5401C233.44 39.5185 233.44 39.4968 233.44 39.4751C233.46 35.0264 235.146 30.5254 238.583 27.0907C245.705 19.9736 257.044 20.4403 263.902 27.2943C266.074 29.4652 267.134 32.0073 267.658 34.1681C269.821 34.6924 272.364 35.7508 274.537 37.9217C281.396 44.7756 281.863 56.1068 274.741 63.2239C271.172 66.7907 266.458 68.467 261.845 68.3584L244.034 68.3106C238.22 68.2947 233.509 63.5885 233.493 57.7778L233.44 39.5401Z" fill="url(#paint0_linear_1_114)"/>
<path fill-rule="evenodd" clip-rule="evenodd" d="M200.012 68.3142C195.12 68.3142 191.156 64.3515 191.156 59.4636V28.0442C191.156 24.6941 193.018 21.7787 195.765 20.2758C195.733 19.8584 195.717 19.4384 195.717 19.0166C195.717 14.1285 199.681 10.166 204.573 10.166H210.153C211.613 10.166 212.991 10.5191 214.204 11.1445C215.419 10.5191 216.796 10.166 218.257 10.166H223.836C228.727 10.166 232.693 14.1285 232.693 19.0166C232.693 19.4543 232.676 19.89 232.641 20.3229C235.341 21.839 237.165 24.7287 237.165 28.0442V59.4636C237.165 64.3515 233.2 68.3142 228.309 68.3142H219.674C217.486 68.3142 215.484 67.5217 213.939 66.2089C212.361 67.5483 210.336 68.3142 208.204 68.3142H200.012Z" fill="url(#paint1_linear_1_114)"/>
<path fill-rule="evenodd" clip-rule="evenodd" d="M169.125 25.3489C170.298 21.6821 173.709 19.1936 177.561 19.1936H187.214C191.071 19.1936 194.484 21.6874 195.654 25.3597L205.662 56.7792C206.519 59.4701 206.04 62.4079 204.372 64.6872C202.704 66.9671 200.048 68.3142 197.222 68.3142H188.454C186.143 68.3142 183.992 67.4185 182.388 65.9121C180.783 67.4185 178.633 68.3142 176.321 68.3142H167.509C164.681 68.3142 162.023 66.9648 160.356 64.6831C158.689 62.4008 158.212 59.4601 159.073 56.7684L169.125 25.3489Z" fill="url(#paint2_linear_1_114)"/>
<path fill-rule="evenodd" clip-rule="evenodd" d="M145.001 68.3142C140.109 68.3142 136.144 64.3515 136.144 59.4636V28.0442C136.144 23.1561 140.109 19.1936 145.001 19.1936H158.551C161.316 19.1936 164.048 19.7609 166.617 20.986C168.95 22.0988 171.015 23.6357 172.745 25.5693C174.39 27.3773 175.675 29.442 176.567 31.7209C177.488 33.9985 177.991 36.4191 177.991 38.9304C177.991 42.2394 177.191 45.4102 175.642 48.3216C174.098 51.2775 171.897 53.7254 169.151 55.5891L169.12 55.6101C167.05 57.0023 164.807 57.8811 162.492 58.3225V59.4636C162.492 64.3515 158.527 68.3142 153.636 68.3142H145.001Z" fill="url(#paint3_linear_1_114)"/>
<path fill-rule="evenodd" clip-rule="evenodd" d="M111.144 68.3142C106.253 68.3142 102.287 64.3515 102.287 59.4636V28.0442C102.287 23.1561 106.253 19.1936 111.144 19.1936H119.779C121.998 19.1936 124.026 20.009 125.58 21.3562C127.168 19.9809 129.22 19.1936 131.381 19.1936H139.44C144.332 19.1936 148.297 23.1561 148.297 28.0442V59.4636C148.297 64.3515 144.332 68.3142 139.44 68.3142H130.805C128.618 68.3142 126.616 67.5218 125.07 66.2089C123.492 67.5483 121.468 68.3142 119.336 68.3142H111.144Z" fill="url(#paint4_linear_1_114)"/>
<path fill-rule="evenodd" clip-rule="evenodd" d="M81.002 68.3142C76.1108 68.3142 72.1454 64.3515 72.1454 59.4636V28.0442C72.1454 23.1561 76.1108 19.1936 81.002 19.1936H105.047C109.939 19.1936 113.904 23.1561 113.904 28.0442V35.4344C113.904 36.6916 113.642 37.8876 113.169 38.9706C115.411 42.1374 116.384 45.8564 116.384 49.6396C116.384 52.8315 115.754 56.0948 114.125 59.1108C114.113 59.1332 114.101 59.155 114.089 59.1768C112.387 62.2639 109.865 64.5928 106.839 66.1399C103.691 67.7654 100.258 68.3142 96.988 68.3142H81.002Z" fill="url(#paint5_linear_1_114)"/>
<path fill-rule="evenodd" clip-rule="evenodd" d="M50.9603 66.4591C50.9267 66.4438 50.8933 66.4284 50.8599 66.4125C47.9444 65.0442 45.3401 63.1879 43.1275 60.839C43.0867 60.7953 43.0464 60.7517 43.0064 60.7074C40.9365 58.4192 39.3012 55.8296 38.1389 52.9707C38.1182 52.9196 38.0978 52.8683 38.0781 52.8168C36.9535 49.8949 36.3806 46.8419 36.3806 43.7097C36.3806 40.4602 37.0057 37.2967 38.2727 34.2953C39.4897 31.4124 41.1964 28.8189 43.365 26.5614L43.3675 26.5588C45.6329 24.2026 48.2951 22.36 51.2838 21.0476L51.3285 21.0281C54.5057 19.6539 57.8699 19.0166 61.3121 19.0166C64.8405 19.0166 68.2987 19.6948 71.5355 21.2043C74.529 22.5716 77.1795 24.4826 79.396 26.9331C81.4903 29.2486 83.1199 31.8818 84.25 34.7911C85.4202 37.697 86.0219 40.7479 86.0219 43.8867C86.0219 47.1045 85.3978 50.233 84.1525 53.2023C82.9528 56.1339 81.2275 58.7567 79.0346 61.0378C76.8052 63.3579 74.1866 65.1758 71.2651 66.5033C71.2308 66.5187 71.1966 66.534 71.1629 66.5488C67.974 67.9489 64.5878 68.5797 61.135 68.5797C57.6281 68.5797 54.1879 67.9253 50.9603 66.4591Z" fill="url(#paint6_linear_1_114)"/>
<path fill-rule="evenodd" clip-rule="evenodd" d="M257.767 72.638C257.946 72.1884 258.381 71.8928 258.865 71.8928H269.4C270.051 71.8928 270.58 72.4214 270.58 73.0728V119.438C270.58 120.09 270.051 120.618 269.4 120.618H260.248C259.719 120.618 259.271 120.271 259.121 119.792C259.086 119.681 259.067 119.561 259.067 119.438V94.9515L252.334 112.248C252.157 112.702 251.72 113.001 251.233 113.001H246.708C246.221 113.001 245.784 112.702 245.607 112.248L238.874 94.9515V119.438C238.874 119.561 238.855 119.681 238.82 119.792C238.669 120.271 238.222 120.618 237.693 120.618H228.541C227.889 120.618 227.361 120.09 227.361 119.438V73.0728C227.361 72.4214 227.889 71.8928 228.541 71.8928H239.133C239.617 71.8928 240.054 72.1895 240.231 72.6409L247.875 92.0355C248.045 92.468 248.407 92.7129 248.795 92.7701C248.911 92.7872 249.029 92.7878 249.145 92.7713C249.535 92.7158 249.9 92.4715 250.072 92.0378L257.767 72.638ZM248.999 67.7371C250.941 64.1485 254.713 61.8622 258.865 61.8622H269.4C275.595 61.8622 280.618 66.8816 280.618 73.0728V119.438C280.618 125.629 275.595 130.649 269.4 130.649H260.248C255.309 130.649 251.117 127.46 249.618 123.031H248.323C246.824 127.46 242.631 130.649 237.693 130.649H228.541C227.186 130.649 225.886 130.409 224.684 129.968C223.48 130.409 222.181 130.649 220.826 130.649H196.622C195.728 135.947 191.115 139.982 185.56 139.982H177.884C172.329 139.982 167.716 135.947 166.823 130.649H147.241C141.045 130.649 136.022 125.629 136.022 119.438V114.073C134.354 114.758 132.614 115.222 130.824 115.471V119.438C130.824 125.629 125.801 130.649 119.605 130.649H110.454C109.098 130.649 107.799 130.409 106.596 129.968C105.393 130.409 104.093 130.649 102.738 130.649H75.2234C72.0114 130.649 69.1141 129.299 67.0694 127.137C65.6996 127.9 64.2696 128.56 62.784 129.117L62.7061 129.147L62.6276 129.174C59.1912 130.399 55.6326 131.061 51.9955 131.061C47.2921 131.061 42.7709 129.97 38.622 127.705L38.5338 127.657L38.4465 127.607C34.7473 125.49 31.557 122.719 28.9 119.373L28.8394 119.297L28.7802 119.22C26.259 115.915 24.3218 112.258 22.9603 108.302L22.9527 108.28L22.9452 108.257C21.5793 104.227 20.8795 100.077 20.8795 95.8436C20.8795 91.7877 21.5271 87.8132 22.8102 83.9608L22.8221 83.9248L22.8342 83.8894C24.1792 79.9497 26.1406 76.3257 28.7179 73.0752C31.4359 69.6471 34.7688 66.8904 38.6474 64.866C42.9098 62.6151 47.5515 61.5878 52.3498 61.5878C57.5665 61.5878 62.5703 62.7732 67.0647 65.3787C69.11 63.2139 72.009 61.8622 75.2234 61.8622H102.206C103.662 61.8622 105.054 62.1395 106.33 62.644C107.606 62.1395 108.998 61.8622 110.454 61.8622H127.34C131.033 61.8622 134.607 62.7484 137.88 64.5639C138.31 64.8029 138.731 65.0536 139.142 65.3156C141.184 63.1873 144.058 61.8622 147.241 61.8622H156.392C159.066 61.8622 161.521 62.7968 163.448 64.3568C165.375 62.7968 167.83 61.8622 170.504 61.8622H179.656C182.225 61.8622 184.592 62.7254 186.483 64.1768C188.375 62.7254 190.742 61.8622 193.311 61.8622H220.294C221.75 61.8622 223.141 62.1395 224.418 62.644C225.694 62.1395 227.085 61.8622 228.541 61.8622H239.133C243.285 61.8622 247.058 64.1497 248.999 67.7371ZM193.311 71.8928C192.659 71.8928 192.13 72.4214 192.13 73.0728V119.438C192.13 120.09 192.659 120.618 193.311 120.618H220.826C221.477 120.618 222.006 120.09 222.006 119.438V110.131C222.006 109.48 221.477 108.951 220.826 108.951H204.825C204.172 108.951 203.644 108.423 203.644 107.771V102.446C203.644 101.794 204.172 101.265 204.825 101.265H217.696C218.348 101.265 218.877 100.737 218.877 100.085V91.6024C218.877 90.9504 218.348 90.4223 217.696 90.4223H204.825C204.172 90.4223 203.644 89.8942 203.644 89.2422V84.7397C203.644 84.0877 204.172 83.5596 204.825 83.5596H220.294C220.946 83.5596 221.475 83.0315 221.475 82.3795V73.0728C221.475 72.4214 220.946 71.8928 220.294 71.8928H193.311ZM182.017 108.951C181.365 108.951 180.837 108.423 180.837 107.771V73.0728C180.837 72.4214 180.308 71.8928 179.656 71.8928H170.504C169.851 71.8928 169.323 72.4214 169.323 73.0728V107.771C169.323 108.423 168.795 108.951 168.142 108.951H158.754C158.102 108.951 157.573 108.423 157.573 107.771V73.0728C157.573 72.4214 157.045 71.8928 156.392 71.8928H147.241C146.875 71.8928 146.547 72.0597 146.331 72.3211C146.161 72.5253 146.06 72.7873 146.06 73.0728V119.438C146.06 120.09 146.588 120.618 147.241 120.618H175.523C176.175 120.618 176.703 121.146 176.703 121.798V128.771C176.703 129.423 177.232 129.951 177.884 129.951H185.56C186.212 129.951 186.741 129.423 186.741 128.771V110.131C186.741 109.48 186.212 108.951 185.56 108.951H182.017ZM103.919 110.131C103.919 109.48 103.39 108.951 102.738 108.951H86.7369C86.085 108.951 85.556 108.423 85.556 107.771V102.446C85.556 101.794 86.085 101.265 86.7369 101.265H99.6084C100.261 101.265 100.789 100.737 100.789 100.085V91.6024C100.789 90.9504 100.261 90.4223 99.6084 90.4223H86.7369C86.085 90.4223 85.556 89.8942 85.556 89.2422V84.7397C85.556 84.0877 86.085 83.5596 86.7369 83.5596H102.206C102.859 83.5596 103.387 83.0315 103.387 82.3795V73.0728C103.387 72.4214 102.859 71.8928 102.206 71.8928H75.2234C75.0941 71.8928 74.9701 71.914 74.8532 71.9524C74.3826 72.1075 74.0425 72.5507 74.0425 73.0728V119.438C74.0425 120.053 74.5137 120.559 75.1153 120.613C75.1507 120.616 75.1868 120.618 75.2234 120.618H102.738C103.39 120.618 103.919 120.09 103.919 119.438V110.131ZM68.8354 82.8309C69.2464 82.4916 69.3816 81.9169 69.1383 81.4425C67.8966 79.0251 66.1855 76.9995 64.0051 75.3645C63.6366 75.0884 63.2546 74.8235 62.8596 74.5692C59.8679 72.602 56.3648 71.6184 52.3498 71.6184C49.004 71.6184 45.9927 72.3276 43.3161 73.7461C40.6788 75.1185 38.4352 76.9712 36.5851 79.3048C34.7351 81.6378 33.318 84.2458 32.334 87.1281C31.3893 89.9645 30.9169 92.8698 30.9169 95.8436C30.9169 98.9549 31.4286 102.02 32.4521 105.04C33.4755 108.014 34.9122 110.713 36.7623 113.138C38.6517 115.517 40.8756 117.438 43.4342 118.902C46.0321 120.321 48.8859 121.03 51.9955 121.03C54.3966 121.03 56.8174 120.595 59.258 119.726C60.9655 119.086 62.5479 118.255 64.0051 117.234C64.6303 116.796 65.2326 116.323 65.8118 115.814C67.5105 114.323 68.7817 112.566 69.6254 110.543C69.8291 110.054 69.6443 109.498 69.2092 109.196L61.8653 104.096C61.2147 103.643 60.3148 103.954 59.9582 104.661C59.5567 105.457 59.0678 106.133 58.4904 106.687C57.585 107.556 56.5812 108.197 55.4791 108.608C54.3769 108.974 53.2945 109.157 52.2317 109.157C50.7359 109.157 49.3779 108.814 48.1577 108.128C46.9768 107.442 45.9731 106.504 45.1465 105.314C44.3199 104.079 43.69 102.683 43.2571 101.128C42.824 99.5726 42.6076 97.9483 42.6076 96.2554C42.6076 94.7455 42.7847 93.2362 43.139 91.7263C43.5326 90.2164 44.1033 88.844 44.8512 87.6084C45.6385 86.3735 46.6226 85.3893 47.8034 84.6577C49.0236 83.88 50.4604 83.4911 52.1136 83.4911C53.1764 83.4911 54.2588 83.6741 55.361 84.0399C56.5025 84.3603 57.5456 84.955 58.4904 85.8242C59.1133 86.3747 59.6417 87.0715 60.0751 87.9147C60.4571 88.6581 61.4361 88.9496 62.0802 88.4168L68.8354 82.8309Z" fill="url(#paint7_linear_1_114)"/>
<path d="M199.496 60.3433C199.496 61.1582 200.157 61.8184 200.972 61.8184H207.273C207.819 61.8184 208.321 61.5169 208.578 61.0343L219.158 41.0986V60.3433C219.158 61.1582 219.819 61.8184 220.634 61.8184H226.907C227.723 61.8184 228.383 61.1582 228.383 60.3433V27.1859C228.383 26.3712 227.723 25.7108 226.907 25.7108H220.735C220.191 25.7108 219.691 26.0097 219.435 26.4885L208.722 46.4426V27.1859C208.722 26.3712 208.061 25.7108 207.246 25.7108H200.972C200.157 25.7108 199.496 26.3712 199.496 27.1859V60.3433ZM208.869 23.5675C210.363 24.3252 212.062 24.7001 213.962 24.7001C215.861 24.7001 217.561 24.3253 219.054 23.5681C220.575 22.8122 221.767 21.76 222.625 20.4111C223.276 19.387 223.679 18.2537 223.836 17.0149C223.943 16.1665 223.238 15.5057 222.435 15.5057H219.217C218.387 15.5057 217.793 16.1809 217.61 16.8964C217.454 17.5074 217.157 18.0398 216.716 18.4977C216.043 19.1973 215.136 19.5578 213.962 19.5578C212.76 19.5578 211.858 19.1819 211.216 18.4567C210.801 17.9872 210.518 17.4664 210.365 16.8922C210.175 16.1809 209.581 15.5057 208.751 15.5057H205.533C204.73 15.5057 204.025 16.1665 204.132 17.0149C204.289 18.2537 204.693 19.387 205.343 20.4111C206.2 21.7588 207.377 22.8112 208.869 23.5675Z" fill="#F7AC1E" stroke="white"/>
<path d="M178.211 25.7107C177.564 25.7107 176.992 26.1321 176.801 26.75L166.542 59.9073C166.249 60.8567 166.958 61.8184 167.953 61.8184H175.194C175.862 61.8184 176.447 61.3694 176.62 60.7239L178.187 54.8649H186.104L187.712 60.7328C187.887 61.3736 188.47 61.8184 189.135 61.8184H196.34C197.334 61.8184 198.044 60.8579 197.751 59.9091L187.533 26.7516C187.342 26.1329 186.77 25.7107 186.122 25.7107H178.211ZM179.617 47.7716L182.16 36.8864L184.589 47.7716H179.617Z" fill="#F7AC1E" stroke="white"/>
<path d="M164.133 49.1019L164.134 49.1011C165.738 47.8703 166.978 46.2981 167.853 44.3895C168.757 42.4822 169.209 40.4552 169.209 38.3118C169.209 36.7763 168.937 35.2592 168.395 33.7617C167.883 32.2644 167.144 30.9177 166.178 29.7238C165.209 28.4933 164.057 27.5165 162.722 26.7966C161.378 26.0721 159.913 25.7107 158.33 25.7107H145.961C145.145 25.7107 144.485 26.3711 144.485 27.1858V60.3433C144.485 61.1582 145.145 61.8184 145.961 61.8184H152.234C153.049 61.8184 153.71 61.1582 153.71 60.3433V50.9129H158.552C160.678 50.9129 162.542 50.311 164.133 49.1019ZM159.519 40.4496L159.516 40.4557L159.514 40.4619C159.318 40.9999 159.08 41.3387 158.822 41.5241C158.541 41.7263 158.261 41.8187 157.976 41.8187H153.71V34.805H157.755C158.04 34.805 158.339 34.8984 158.655 35.1064L158.667 35.1147L158.681 35.1217C158.982 35.2788 159.254 35.5945 159.475 36.124L159.479 36.1332L159.483 36.1421C159.719 36.6161 159.851 37.3299 159.851 38.3118C159.851 39.2249 159.734 39.9323 159.519 40.4496Z" fill="#F7AC1E" stroke="white"/>
<path d="M110.628 60.3433C110.628 61.1582 111.289 61.8184 112.104 61.8184H118.405C118.952 61.8184 119.453 61.5169 119.709 61.0343L130.29 41.0985V60.3433C130.29 61.1582 130.951 61.8184 131.766 61.8184H138.039C138.854 61.8184 139.515 61.1582 139.515 60.3433V27.1858C139.515 26.3711 138.854 25.7107 138.039 25.7107H131.867C131.323 25.7107 130.824 26.0095 130.566 26.4884L119.854 46.4425V27.1858C119.854 26.3711 119.193 25.7107 118.378 25.7107H112.104C111.289 25.7107 110.628 26.3711 110.628 27.1858V60.3433Z" fill="#F7AC1E" stroke="white"/>
<path d="M80.4865 61.5234V61.8184H80.7817H96.7678C99.1361 61.8184 101.125 61.3612 102.717 60.4277C104.332 59.4978 105.554 58.1862 106.377 56.5001L106.378 56.4979C107.198 54.7822 107.602 52.7524 107.602 50.4178C107.602 47.0588 106.655 44.3764 104.728 42.4077C102.796 40.4322 99.9768 39.4676 96.325 39.4676H89.7121V34.6549H103.646C104.461 34.6549 105.122 33.9945 105.122 33.1798V27.1858C105.122 26.3711 104.461 25.7107 103.646 25.7107H81.9626C81.1472 25.7107 80.4865 26.3711 80.4865 27.1858V61.5234ZM97.0447 52.4748L97.0406 52.4775L97.0371 52.4803C96.6922 52.7308 96.1856 52.8742 95.4836 52.8742H89.7121V47.5113H95.4393C96.2093 47.5113 96.7684 47.6412 97.1469 47.8691C97.5318 48.1011 97.7786 48.4115 97.9032 48.8059L97.9068 48.8174L97.9115 48.8285C98.0733 49.2243 98.1553 49.653 98.1553 50.1177C98.1553 50.576 98.0609 51.019 97.8702 51.4491L97.8672 51.4564L97.8643 51.4638C97.7102 51.8699 97.4409 52.2062 97.0447 52.4748Z" fill="#F7AC1E" stroke="white"/>
<path d="M200.972 56.2479C200.32 56.2479 199.791 55.7196 199.791 55.0678V26.0084C199.791 25.3567 200.32 24.8284 200.972 24.8284H207.246C207.898 24.8284 208.426 25.3567 208.426 26.0084V43.9456L219.684 25.3965C219.898 25.0438 220.281 24.8284 220.693 24.8284H226.907C227.56 24.8284 228.088 25.3567 228.088 26.0084V55.0678C228.088 55.7196 227.56 56.2479 226.907 56.2479H220.634C219.982 56.2479 219.453 55.7196 219.453 55.0678V37.1307L208.328 55.6746C208.114 56.0303 207.73 56.2479 207.315 56.2479H200.972ZM213.962 23.4123C212.102 23.4123 210.449 23.0877 209.002 22.4387C207.556 21.7897 206.419 20.8898 205.592 19.7393C204.992 18.9037 204.61 17.9826 204.446 16.9759C204.341 16.3327 204.881 15.8008 205.533 15.8008H208.751C209.404 15.8008 209.907 16.3443 210.12 16.9602C210.293 17.459 210.585 17.9133 210.995 18.3232C211.703 19.0312 212.692 19.3852 213.962 19.3852C215.202 19.3852 216.191 19.046 216.929 18.3674C217.37 17.9621 217.679 17.4936 217.856 16.962C218.063 16.3438 218.565 15.8008 219.217 15.8008H222.435C223.087 15.8008 223.628 16.3327 223.523 16.9759C223.358 17.9826 222.976 18.9037 222.376 19.7393C221.549 20.8898 220.398 21.7897 218.921 22.4387C217.475 23.0877 215.822 23.4123 213.962 23.4123Z" fill="#333333"/>
<path d="M200.972 56.2479C200.32 56.2479 199.791 55.7196 199.791 55.0678V26.0084C199.791 25.3567 200.32 24.8284 200.972 24.8284H207.246C207.898 24.8284 208.426 25.3567 208.426 26.0084V43.9456L219.684 25.3965C219.898 25.0438 220.281 24.8284 220.693 24.8284H226.907C227.56 24.8284 228.088 25.3567 228.088 26.0084V55.0678C228.088 55.7196 227.56 56.2479 226.907 56.2479H220.634C219.982 56.2479 219.453 55.7196 219.453 55.0678V37.1307L208.328 55.6746C208.114 56.0303 207.73 56.2479 207.315 56.2479H200.972ZM213.962 23.4123C212.102 23.4123 210.449 23.0877 209.002 22.4387C207.556 21.7897 206.419 20.8898 205.592 19.7393C204.992 18.9037 204.61 17.9826 204.446 16.9759C204.341 16.3327 204.881 15.8008 205.533 15.8008H208.751C209.404 15.8008 209.907 16.3443 210.12 16.9602C210.293 17.459 210.585 17.9133 210.995 18.3232C211.703 19.0312 212.692 19.3852 213.962 19.3852C215.202 19.3852 216.191 19.046 216.929 18.3674C217.37 17.9621 217.679 17.4936 217.856 16.962C218.063 16.3438 218.565 15.8008 219.217 15.8008H222.435C223.087 15.8008 223.628 16.3327 223.523 16.9759C223.358 17.9826 222.976 18.9037 222.376 19.7393C221.549 20.8898 220.398 21.7897 218.921 22.4387C217.475 23.0877 215.822 23.4123 213.962 23.4123Z" fill="#FDF36D"/>
<path d="M177.078 25.6489C177.234 25.16 177.689 24.8282 178.203 24.8282H186.13C186.645 24.8282 187.1 25.1607 187.256 25.6504L196.512 54.7098C196.755 55.4709 196.186 56.2478 195.387 56.2478H189.104C188.587 56.2478 188.13 55.9107 187.977 55.4165L186.33 50.0966H177.961L176.354 55.409C176.203 55.9071 175.744 56.2478 175.224 56.2478H168.906C168.106 56.2478 167.537 55.4697 167.781 54.7083L177.078 25.6489ZM184.957 44.3437L182.167 33.2805L179.245 44.3437H184.957Z" fill="#333333"/>
<path d="M177.078 25.6489C177.234 25.16 177.689 24.8282 178.203 24.8282H186.13C186.645 24.8282 187.1 25.1607 187.256 25.6504L196.512 54.7098C196.755 55.4709 196.186 56.2478 195.387 56.2478H189.104C188.587 56.2478 188.13 55.9107 187.977 55.4165L186.33 50.0966H177.961L176.354 55.409C176.203 55.9071 175.744 56.2478 175.224 56.2478H168.906C168.106 56.2478 167.537 55.4697 167.781 54.7083L177.078 25.6489ZM184.957 44.3437L182.167 33.2805L179.245 44.3437H184.957Z" fill="#FDF36D"/>
<path d="M145.961 56.2478C145.309 56.2478 144.78 55.7194 144.78 55.0677V26.0083C144.78 25.3566 145.309 24.8282 145.961 24.8282H158.33C159.865 24.8282 161.282 25.138 162.581 25.7575C163.88 26.3771 165.002 27.2179 165.947 28.28C166.892 29.3125 167.615 30.4778 168.117 31.7759C168.648 33.074 168.914 34.3869 168.914 35.7144C168.914 37.5731 168.471 39.3284 167.585 40.9805C166.729 42.6326 165.519 43.9897 163.954 45.0518C162.419 46.0844 160.618 46.6006 158.552 46.6006H153.415V55.0677C153.415 55.7194 152.886 56.2478 152.234 56.2478H145.961ZM153.415 39.0777H157.976C158.33 39.0777 158.67 38.9744 158.995 38.7679C159.319 38.5614 159.585 38.2074 159.792 37.7058C160.028 37.2043 160.146 36.5405 160.146 35.7144C160.146 34.8294 160.013 34.1508 159.747 33.6788C159.511 33.1773 159.201 32.838 158.817 32.661C158.463 32.4545 158.109 32.3512 157.755 32.3512H153.415V39.0777Z" fill="#333333"/>
<path d="M145.961 56.2478C145.309 56.2478 144.78 55.7194 144.78 55.0677V26.0083C144.78 25.3566 145.309 24.8282 145.961 24.8282H158.33C159.865 24.8282 161.282 25.138 162.581 25.7575C163.88 26.3771 165.002 27.2179 165.947 28.28C166.892 29.3125 167.615 30.4778 168.117 31.7759C168.648 33.074 168.914 34.3869 168.914 35.7144C168.914 37.5731 168.471 39.3284 167.585 40.9805C166.729 42.6326 165.519 43.9897 163.954 45.0518C162.419 46.0844 160.618 46.6006 158.552 46.6006H153.415V55.0677C153.415 55.7194 152.886 56.2478 152.234 56.2478H145.961ZM153.415 39.0777H157.976C158.33 39.0777 158.67 38.9744 158.995 38.7679C159.319 38.5614 159.585 38.2074 159.792 37.7058C160.028 37.2043 160.146 36.5405 160.146 35.7144C160.146 34.8294 160.013 34.1508 159.747 33.6788C159.511 33.1773 159.201 32.838 158.817 32.661C158.463 32.4545 158.109 32.3512 157.755 32.3512H153.415V39.0777Z" fill="#FDF36D"/>
<path d="M112.104 56.2478C111.452 56.2478 110.924 55.7194 110.924 55.0677V26.0083C110.924 25.3566 111.452 24.8282 112.104 24.8282H118.378C119.03 24.8282 119.559 25.3566 119.559 26.0083V43.9455L130.816 25.3964C131.03 25.0437 131.413 24.8282 131.826 24.8282H138.039C138.691 24.8282 139.22 25.3566 139.22 26.0083V55.0677C139.22 55.7194 138.691 56.2478 138.039 56.2478H131.766C131.114 56.2478 130.585 55.7194 130.585 55.0677V37.1305L119.459 55.6745C119.246 56.0302 118.861 56.2478 118.447 56.2478H112.104Z" fill="#333333"/>
<path d="M112.104 56.2478C111.452 56.2478 110.924 55.7194 110.924 55.0677V26.0083C110.924 25.3566 111.452 24.8282 112.104 24.8282H118.378C119.03 24.8282 119.559 25.3566 119.559 26.0083V43.9455L130.816 25.3964C131.03 25.0437 131.413 24.8282 131.826 24.8282H138.039C138.691 24.8282 139.22 25.3566 139.22 26.0083V55.0677C139.22 55.7194 138.691 56.2478 138.039 56.2478H131.766C131.114 56.2478 130.585 55.7194 130.585 55.0677V37.1305L119.459 55.6745C119.246 56.0302 118.861 56.2478 118.447 56.2478H112.104Z" fill="#FDF36D"/>
<path d="M80.7817 56.2478V26.0083C80.7817 25.3566 81.3102 24.8282 81.9626 24.8282H103.646C104.298 24.8282 104.827 25.3566 104.827 26.0083V31.0384C104.827 31.6901 104.298 32.2185 103.646 32.2185H89.4169V36.9978H96.325C99.9266 36.9978 102.657 37.8386 104.517 39.5202C106.377 41.2018 107.307 43.5029 107.307 46.4236C107.307 48.4593 106.909 50.2146 106.111 51.6897C105.314 53.1353 104.134 54.2564 102.569 55.0529C101.034 55.8495 99.1 56.2478 96.7678 56.2478H80.7817ZM89.4169 48.8575H95.4836C96.2217 48.8575 96.7973 48.7248 97.2106 48.4593C97.6535 48.1937 97.9634 47.8545 98.1406 47.4415C98.3472 47.0284 98.4506 46.6006 98.4506 46.1581C98.4506 45.7156 98.362 45.3026 98.1849 44.919C98.0372 44.506 97.742 44.1815 97.2992 43.9455C96.8564 43.7095 96.2364 43.5914 95.4393 43.5914H89.4169V48.8575Z" fill="#333333"/>
<path d="M80.7817 56.2478V26.0083C80.7817 25.3566 81.3102 24.8282 81.9626 24.8282H103.646C104.298 24.8282 104.827 25.3566 104.827 26.0083V31.0384C104.827 31.6901 104.298 32.2185 103.646 32.2185H89.4169V36.9978H96.325C99.9266 36.9978 102.657 37.8386 104.517 39.5202C106.377 41.2018 107.307 43.5029 107.307 46.4236C107.307 48.4593 106.909 50.2146 106.111 51.6897C105.314 53.1353 104.134 54.2564 102.569 55.0529C101.034 55.8495 99.1 56.2478 96.7678 56.2478H80.7817ZM89.4169 48.8575H95.4836C96.2217 48.8575 96.7973 48.7248 97.2106 48.4593C97.6535 48.1937 97.9634 47.8545 98.1406 47.4415C98.3472 47.0284 98.4506 46.6006 98.4506 46.1581C98.4506 45.7156 98.362 45.3026 98.1849 44.919C98.0372 44.506 97.742 44.1815 97.2992 43.9455C96.8564 43.7095 96.2364 43.5914 95.4393 43.5914H89.4169V48.8575Z" fill="#FDF36D"/>
<path d="M60.9141 56.5134C58.5229 56.5134 56.353 56.0709 54.4046 55.1858C52.4561 54.2713 50.7734 53.0617 49.3563 51.5571C47.9688 50.023 46.8913 48.3119 46.1237 46.4237C45.3857 44.5061 45.0166 42.5295 45.0166 40.4939C45.0166 38.3992 45.4152 36.4078 46.2123 34.5197C47.0094 32.6316 48.1164 30.95 49.5335 29.4749C50.98 27.9703 52.6775 26.7902 54.626 25.9347C56.604 25.0791 58.759 24.6513 61.0913 24.6513C63.4825 24.6513 65.6524 25.1086 67.6008 26.0232C69.5493 26.9082 71.2173 28.1178 72.6048 29.6519C73.9923 31.186 75.0551 32.9119 75.7931 34.8295C76.5607 36.7176 76.9445 38.6647 76.9445 40.6709C76.9445 42.736 76.5459 44.7126 75.7489 46.6008C74.9813 48.4889 73.8742 50.1852 72.4277 51.6898C71.0106 53.1649 69.3279 54.345 67.3794 55.2301C65.431 56.0856 63.2759 56.5134 60.9141 56.5134ZM53.7846 40.5824C53.7846 41.6444 53.9322 42.677 54.2274 43.6801C54.5227 44.6536 54.9655 45.5387 55.5559 46.3352C56.1464 47.1023 56.8844 47.7218 57.7701 48.1939C58.6852 48.6364 59.7628 48.8577 61.0027 48.8577C62.2426 48.8577 63.3202 48.6216 64.2353 48.1496C65.1505 47.6776 65.8886 47.0433 66.4495 46.2467C67.0399 45.4207 67.468 44.5209 67.7337 43.5473C68.0289 42.5442 68.1765 41.5264 68.1765 40.4939C68.1765 39.4318 68.0289 38.414 67.7337 37.4404C67.4385 36.4669 66.9956 35.5965 66.4052 34.8295C65.8148 34.0329 65.062 33.4134 64.1468 32.9709C63.2316 32.5283 62.1688 32.3071 60.9584 32.3071C59.7185 32.3071 58.641 32.5431 57.7258 33.0151C56.8401 33.4872 56.1021 34.1215 55.5116 34.918C54.9212 35.6851 54.4784 36.5701 54.1832 37.5732C53.9175 38.5467 53.7846 39.5498 53.7846 40.5824Z" fill="#333333"/>
<path d="M242.296 39.5145C242.306 37.2636 243.154 35.0399 244.845 33.349C248.322 29.8746 254.051 29.9658 257.64 33.5526C259.55 35.4614 259.497 38.9475 259.16 41.6604C259.089 42.2375 259.584 42.7321 260.161 42.6606C262.876 42.3242 266.364 42.2711 268.274 44.18C271.864 47.7669 271.954 53.4912 268.478 56.9657C266.703 58.7396 264.341 59.5839 261.977 59.5084L244.059 59.4601C243.116 59.4571 242.352 58.6941 242.349 57.7518L242.296 39.5145Z" fill="#E95252"/>
<path d="M242.296 39.5146C242.306 37.2637 243.154 35.04 244.845 33.3492C248.322 29.8747 254.051 29.9658 257.64 33.5527C259.55 35.4615 259.497 38.9476 259.16 41.6604C259.089 42.2376 259.584 42.7322 260.161 42.6606C262.876 42.3243 266.364 42.2713 268.274 44.1801C271.864 47.767 271.954 53.4913 268.478 56.9657C266.703 58.7396 264.341 59.5839 261.977 59.5084L244.059 59.46C243.116 59.4571 242.352 58.6941 242.349 57.7518L242.296 39.5146Z" fill="#E95252"/>
<path fill-rule="evenodd" clip-rule="evenodd" d="M241.44 39.517V39.5107C241.45 37.0472 242.378 34.6031 244.239 32.7435C248.069 28.9166 254.34 29.0441 258.246 32.947C259.389 34.09 259.897 35.6533 260.093 37.1975C260.289 38.7489 260.182 40.3793 260.011 41.7657C260.01 41.7737 260.011 41.7779 260.012 41.7812C260.013 41.7857 260.017 41.792 260.023 41.7981C260.029 41.8043 260.036 41.8078 260.04 41.8095C260.044 41.8107 260.048 41.8117 260.055 41.8107C261.443 41.6388 263.074 41.5325 264.627 41.7288C266.172 41.9241 267.736 42.4316 268.88 43.5745C272.786 47.4775 272.913 53.7443 269.084 57.5712C267.135 59.519 264.545 60.4442 261.962 60.3645L244.056 60.3161C242.642 60.3126 241.496 59.1679 241.492 57.7542L241.44 39.517ZM261.977 59.5084C264.341 59.5839 266.703 58.7396 268.478 56.9657C271.954 53.4912 271.864 47.7669 268.274 44.1801C266.364 42.2712 262.876 42.3242 260.161 42.6605C259.584 42.7321 259.089 42.2375 259.16 41.6604C259.497 38.9475 259.55 35.4614 257.64 33.5526C254.051 29.9658 248.322 29.8746 244.845 33.349C243.154 35.0399 242.306 37.2636 242.296 39.5145L242.349 57.7518C242.352 58.6941 243.116 59.457 244.059 59.46L261.977 59.5084Z" fill="#D93F3F"/>
<path fill-rule="evenodd" clip-rule="evenodd" d="M242.309 43.686L242.349 57.7518C242.352 58.6941 243.116 59.457 244.059 59.46H244.095C243.892 59.2069 243.758 58.8941 243.725 58.5496L242.309 43.686ZM271.011 50.2219C270.882 48.0394 269.968 45.8719 268.274 44.1801C266.364 42.2712 262.876 42.3242 260.161 42.6605C259.584 42.7321 259.089 42.2375 259.16 41.6604C259.376 39.9173 259.476 37.855 259.012 36.097C259.342 38.0565 259.12 40.2863 258.894 42.0388C258.756 43.1055 259.624 43.9747 260.695 43.8689C262.786 43.6624 265.157 43.6325 267.047 45.0732C268.768 46.3847 270.296 48.1701 271.011 50.2219Z" fill="#D93F3F"/>
<path fill-rule="evenodd" clip-rule="evenodd" d="M244.032 34.2872C243.612 35.3127 243.442 36.4442 243.514 37.5995L244.675 54.3345C244.734 55.1872 245.413 55.8657 246.266 55.9247L262.709 57.0609C264.874 57.2734 266.981 56.6452 268.495 55.1322C271.332 52.2976 271.06 47.3842 267.971 43.9038C268.076 43.9909 268.177 44.0829 268.274 44.1801C271.864 47.7669 271.954 53.4912 268.478 56.9657C266.703 58.7397 264.341 59.584 261.977 59.5085L244.059 59.4595C243.116 59.4572 242.352 58.6942 242.349 57.752L242.296 39.5145C242.305 37.6592 242.881 35.8224 244.032 34.2872ZM257.359 33.284C259.049 35.1729 259.19 38.2346 259.05 40.6104C259.038 40.8236 259.101 41.0226 259.215 41.1829C259.496 38.55 259.44 35.3512 257.639 33.5526C257.548 33.4608 257.455 33.3712 257.359 33.284Z" fill="#D93F3F"/>
<path d="M257.931 37.5859C257.498 40.328 255.035 37.2965 251.704 37.7306C249.052 38.0763 245.352 39.7833 245.629 36.6058C245.907 33.4282 248.936 31.0968 252.395 31.3985C255.854 31.7001 258.366 34.8361 257.931 37.5859Z" fill="#FF6D6D"/>
<path d="M257.377 36.7485C256.952 38.0217 255.939 35.8285 253.13 36.1828C250.215 36.5505 247.044 36.3242 247.699 34.0368C248.299 32.1517 250.875 31.2874 253.453 32.1064C256.031 32.9254 257.844 35.3482 257.377 36.7485Z" fill="#FF968F"/>
<path d="M269.531 48.3167C269.389 49.8807 267.398 49.0276 264.552 49.5964C262.232 50.0599 258.05 49.2108 258.718 46.6103C259.27 44.4578 261.927 42.5206 265.021 43.2508C268.115 43.9809 269.705 46.4118 269.531 48.3167Z" fill="#FF6D6D"/>
<path d="M268.82 47.6057C268.698 48.7048 267.397 47.8901 265.405 47.8901C263.413 47.8901 260.934 47.0214 261.403 45.549C261.871 44.0766 263.883 43.4016 265.897 44.0413C267.91 44.681 268.962 46.3259 268.82 47.6057Z" fill="#FF968F"/>
<path d="M258.772 119.438C258.772 120.252 259.433 120.913 260.248 120.913H269.4C270.214 120.913 270.876 120.252 270.876 119.438V73.0728C270.876 72.258 270.214 71.5977 269.4 71.5977H258.865C258.26 71.5977 257.716 71.9671 257.493 72.5294L249.797 91.9293C249.501 92.6751 248.444 92.6739 248.15 91.9275L240.506 72.5324C240.283 71.9683 239.739 71.5977 239.133 71.5977H228.541C227.726 71.5977 227.065 72.258 227.065 73.0728V119.438C227.065 120.252 227.726 120.913 228.541 120.913H237.693C238.508 120.913 239.169 120.252 239.169 119.438V96.5233L245.332 112.355C245.553 112.922 246.099 113.295 246.708 113.295H251.233C251.842 113.295 252.388 112.922 252.609 112.355L258.772 96.5233V119.438Z" fill="#BC9EFF" stroke="white"/>
<path d="M222.302 110.131C222.302 109.317 221.64 108.656 220.826 108.656H204.825C204.335 108.656 203.939 108.26 203.939 107.771V102.446C203.939 101.956 204.335 101.56 204.825 101.56H217.696C218.511 101.56 219.172 100.9 219.172 100.085V91.6024C219.172 90.7875 218.511 90.1273 217.696 90.1273H204.825C204.335 90.1273 203.939 89.7308 203.939 89.2422V84.7397C203.939 84.2505 204.335 83.8546 204.825 83.8546H220.294C221.109 83.8546 221.77 83.1938 221.77 82.3795V73.0728C221.77 72.258 221.109 71.5977 220.294 71.5977H193.311C192.496 71.5977 191.835 72.258 191.835 73.0728V119.438C191.835 120.253 192.496 120.913 193.311 120.913H220.826C221.64 120.913 222.302 120.253 222.302 119.438V110.131Z" fill="#BC9EFF" stroke="white"/>
<path d="M176.408 128.771C176.408 129.586 177.069 130.246 177.884 130.246H185.56C186.375 130.246 187.036 129.586 187.036 128.771V110.131C187.036 109.317 186.375 108.656 185.56 108.656H182.017C181.529 108.656 181.132 108.26 181.132 107.771V73.0728C181.132 72.258 180.471 71.5977 179.656 71.5977H170.504C169.688 71.5977 169.028 72.258 169.028 73.0728V107.771C169.028 108.26 168.631 108.656 168.142 108.656H158.754C158.265 108.656 157.869 108.26 157.869 107.771V73.0728C157.869 72.258 157.208 71.5977 156.392 71.5977H147.241C146.425 71.5977 145.765 72.258 145.765 73.0728V119.438C145.765 120.252 146.425 120.913 147.241 120.913H175.523C176.011 120.913 176.408 121.309 176.408 121.798V128.771Z" fill="#BC9EFF" stroke="white"/>
<path d="M135.021 103.488L135.022 103.487C137.147 101.809 138.79 99.6658 139.949 97.0632C141.148 94.4623 141.747 91.6986 141.747 88.7749C141.747 86.6826 141.387 84.6146 140.668 82.5719C139.989 80.5297 139.009 78.6929 137.729 77.065C136.446 75.3881 134.92 74.057 133.152 73.0764C131.374 72.0904 129.435 71.5977 127.34 71.5977H110.454C109.639 71.5977 108.977 72.258 108.977 73.0728V119.438C108.977 120.253 109.639 120.913 110.454 120.913H119.605C120.421 120.913 121.081 120.252 121.081 119.438V106.837C121.081 106.349 121.478 105.952 121.967 105.952H127.635C130.453 105.952 132.918 105.132 135.021 103.488ZM129.015 91.7528L129.013 91.7587L129.01 91.7647C128.745 92.5146 128.417 93.002 128.05 93.2734C127.661 93.5613 127.269 93.6958 126.868 93.6958H121.967C121.478 93.6958 121.081 93.2993 121.081 92.8108V84.7397C121.081 84.2505 121.478 83.8546 121.967 83.8546H126.572C126.975 83.8546 127.39 83.9897 127.824 84.2841L127.837 84.2924L127.85 84.2995C128.279 84.5296 128.656 84.9875 128.956 85.7291L128.96 85.738L128.964 85.7468C129.29 86.4201 129.466 87.4202 129.466 88.7749C129.466 90.0364 129.31 91.0236 129.015 91.7528Z" fill="#BC9EFF" stroke="white"/>
<path d="M104.214 110.131C104.214 109.317 103.553 108.656 102.738 108.656H86.7369C86.248 108.656 85.8512 108.26 85.8512 107.771V102.446C85.8512 101.956 86.248 101.56 86.7369 101.56H99.6084C100.424 101.56 101.084 100.9 101.084 100.085V91.6024C101.084 90.7875 100.424 90.1273 99.6084 90.1273H86.7369C86.248 90.1273 85.8512 89.7308 85.8512 89.2422V84.7397C85.8512 84.2505 86.248 83.8546 86.7369 83.8546H102.206C103.022 83.8546 103.682 83.1938 103.682 82.3795V73.0728C103.682 72.258 103.022 71.5977 102.206 71.5977H75.2234C74.4086 71.5977 73.7473 72.258 73.7473 73.0728V119.438C73.7473 120.253 74.4086 120.913 75.2234 120.913H102.738C103.553 120.913 104.214 120.253 104.214 119.438V110.131Z" fill="#BC9EFF" stroke="white"/>
<path d="M32.0545 87.0331L32.0539 87.0349C31.0992 89.9013 30.6217 92.8379 30.6217 95.8436C30.6217 98.9879 31.1389 102.085 32.1724 105.134L32.1729 105.136C33.2062 108.138 34.6577 110.866 36.5275 113.316L36.531 113.321C38.443 115.728 40.6954 117.675 43.2875 119.158L43.2927 119.161C45.9362 120.605 48.839 121.325 51.9955 121.325C54.433 121.325 56.8872 120.884 59.3572 120.004L59.3619 120.002C61.8352 119.075 64.0505 117.752 66.0067 116.036C67.7384 114.516 69.0368 112.722 69.8982 110.656C70.1598 110.029 69.9177 109.328 69.378 108.954L62.0342 103.853C61.2094 103.281 60.117 103.69 59.6943 104.528C59.3064 105.298 58.8364 105.946 58.2855 106.474C57.4089 107.316 56.4408 107.933 55.3808 108.33C54.3077 108.686 53.2584 108.862 52.2317 108.862C50.7838 108.862 49.4768 108.531 48.3043 107.872C47.1645 107.209 46.1933 106.303 45.3904 105.148C44.5834 103.942 43.9665 102.576 43.5415 101.049C43.116 99.5201 42.9028 97.9229 42.9028 96.2554C42.9028 94.7703 43.0769 93.284 43.4256 91.7971C43.8122 90.3149 44.3715 88.9714 45.1021 87.7642C45.8665 86.5652 46.8188 85.6153 47.959 84.9084L47.9622 84.906C49.1285 84.1626 50.5084 83.7862 52.1136 83.7862C53.1419 83.7862 54.193 83.9632 55.2679 84.3201L55.2745 84.3219L55.2812 84.3237C56.3743 84.6305 57.3769 85.2011 58.2902 86.0413L58.295 86.0454C58.8866 86.5682 59.3932 87.2343 59.8124 88.0498C60.2641 88.9277 61.4514 89.3195 62.2686 88.6445L69.0238 83.0586C69.5345 82.6362 69.7116 81.9128 69.4011 81.308C67.925 78.4351 65.7965 76.1056 63.0202 74.3219C59.9753 72.3199 56.4146 71.3234 52.3498 71.3234C48.9613 71.3234 45.902 72.042 43.1788 73.4847C40.505 74.8766 38.2293 76.7558 36.3537 79.1213C34.4823 81.4815 33.0492 84.1195 32.0545 87.0331Z" fill="#BC9EFF" stroke="white"/>
<path d="M260.247 113.747C259.595 113.747 259.066 113.219 259.066 112.567V91.6797L252.354 106.504C252.163 106.926 251.743 107.198 251.279 107.198H246.662C246.198 107.198 245.777 106.926 245.586 106.504L238.873 91.6797V112.567C238.873 113.219 238.345 113.747 237.693 113.747H228.541C227.889 113.747 227.36 113.219 227.36 112.567V73.0345C227.36 72.3825 227.889 71.8544 228.541 71.8544H239.178C239.64 71.8544 240.06 72.1235 240.252 72.5436L248.475 90.5049C248.685 90.9651 249.339 90.9646 249.549 90.5049L257.748 72.5447C257.94 72.124 258.36 71.8544 258.822 71.8544H269.399C270.052 71.8544 270.58 72.3825 270.58 73.0345V112.567C270.58 113.219 270.052 113.747 269.399 113.747H260.247Z" fill="white"/>
<path d="M221.415 103.716C222.068 103.716 222.596 104.245 222.596 104.897V112.567C222.596 113.219 222.068 113.747 221.415 113.747H193.311C192.659 113.747 192.13 113.219 192.13 112.567V73.0345C192.13 72.3825 192.659 71.8544 193.311 71.8544H220.884C221.537 71.8544 222.065 72.3825 222.065 73.0345V80.705C222.065 81.357 221.537 81.8851 220.884 81.8851H204.824C204.172 81.8851 203.643 82.4131 203.643 83.0651V86.6054C203.643 87.2574 204.172 87.7854 204.824 87.7854H218.286C218.939 87.7854 219.467 88.3135 219.467 88.9655V95.928C219.467 96.58 218.939 97.108 218.286 97.108H204.824C204.172 97.108 203.643 97.6361 203.643 98.2881V102.536C203.643 103.188 204.172 103.716 204.824 103.716H221.415Z" fill="white"/>
<path d="M177.884 121.772C177.232 121.772 176.703 121.244 176.703 120.592V114.927C176.703 114.275 176.175 113.747 175.523 113.747H147.241C146.588 113.747 146.06 113.219 146.06 112.567V73.0345C146.06 72.3825 146.588 71.8544 147.241 71.8544H156.392C157.045 71.8544 157.573 72.3825 157.573 73.0345V102.536C157.573 103.188 158.102 103.716 158.754 103.716H168.142C168.795 103.716 169.323 103.188 169.323 102.536V73.0345C169.323 72.3825 169.851 71.8544 170.504 71.8544H179.656C180.308 71.8544 180.837 72.3825 180.837 73.0345V102.536C180.837 103.188 181.365 103.716 182.017 103.716H186.15C186.803 103.716 187.331 104.245 187.331 104.897V120.592C187.331 121.244 186.803 121.772 186.15 121.772H177.884Z" fill="white"/>
<path d="M110.454 113.747C109.802 113.747 109.273 113.219 109.273 112.567V73.0345C109.273 72.3825 109.802 71.8544 110.454 71.8544H127.34C129.387 71.8544 131.276 72.2674 133.008 73.0935C134.741 73.9195 136.236 75.0406 137.496 76.4567C138.756 77.8333 139.72 79.3874 140.389 81.118C141.097 82.8486 141.451 84.5992 141.451 86.3693C141.451 88.8475 140.861 91.1882 139.68 93.3908C138.539 95.5934 136.925 97.4031 134.839 98.8192C132.792 100.196 130.391 100.884 127.635 100.884H121.967C121.315 100.884 120.786 101.412 120.786 102.064V112.567C120.786 113.219 120.258 113.747 119.605 113.747H110.454ZM120.786 89.6736C120.786 90.3256 121.315 90.8536 121.967 90.8536H126.868C127.34 90.8536 127.793 90.7162 128.226 90.4406C128.659 90.1651 129.013 89.693 129.288 89.0245C129.604 88.356 129.761 87.4709 129.761 86.3693C129.761 85.1893 129.584 84.2847 129.229 83.6552C128.915 82.9867 128.501 82.5341 127.99 82.2981C127.517 82.0225 127.045 81.8851 126.572 81.8851H121.967C121.315 81.8851 120.786 82.4131 120.786 83.0651V89.6736Z" fill="white"/>
<path d="M103.328 103.716C103.981 103.716 104.509 104.245 104.509 104.897V112.567C104.509 113.219 103.981 113.747 103.328 113.747H75.2234C74.5715 113.747 74.0425 113.219 74.0425 112.567V73.0345C74.0425 72.3825 74.5715 71.8544 75.2234 71.8544H102.797C103.449 71.8544 103.978 72.3825 103.978 73.0345V80.705C103.978 81.357 103.449 81.8851 102.797 81.8851H86.7369C86.085 81.8851 85.556 82.4131 85.556 83.0651V86.6054C85.556 87.2574 86.085 87.7854 86.7369 87.7854H100.199C100.851 87.7854 101.38 88.3135 101.38 88.9655V95.928C101.38 96.58 100.851 97.108 100.199 97.108H86.7369C86.085 97.108 85.556 97.6361 85.556 98.2881V102.536C85.556 103.188 86.085 103.716 86.7369 103.716H103.328Z" fill="white"/>
<path d="M30.9169 92.4467C30.9169 89.8901 31.3893 87.3919 32.334 84.9533C33.318 82.4751 34.7351 80.233 36.5851 78.2268C38.4352 76.2207 40.6788 74.6276 43.3161 73.4475C45.9927 72.2279 49.004 71.6184 52.3498 71.6184C56.3648 71.6184 59.8679 72.4639 62.8596 74.1556C65.519 75.6242 67.5719 77.5282 69.0179 79.8671C69.329 80.3704 69.1714 81.0201 68.6884 81.3635L61.9893 86.1263C61.3564 86.5765 60.4737 86.2956 60.0751 85.6294C59.6412 84.9043 59.1133 84.3054 58.4904 83.8322C57.5456 83.0846 56.5025 82.5736 55.361 82.2981C54.2589 81.9836 53.1764 81.8261 52.1136 81.8261C50.4604 81.8261 49.0236 82.1606 47.8034 82.8291C46.6226 83.4587 45.6385 84.3042 44.8512 85.3663C44.1033 86.4284 43.5326 87.6084 43.139 88.9065C42.7847 90.2046 42.6076 91.5027 42.6076 92.8008C42.6076 94.2564 42.824 95.6524 43.2571 96.99C43.69 98.3277 44.3199 99.5272 45.1465 100.589C45.9731 101.612 46.9768 102.418 48.1577 103.008C49.3779 103.598 50.7359 103.893 52.2317 103.893C53.2945 103.893 54.3769 103.736 55.4791 103.421C56.5812 103.067 57.585 102.517 58.4904 101.769C59.0649 101.295 59.5526 100.717 59.9529 100.037C60.3261 99.4021 61.1391 99.1077 61.7715 99.4853L69.0769 103.847C69.5764 104.145 69.7902 104.767 69.5262 105.285C68.6831 106.94 67.445 108.384 65.8118 109.617C63.8829 111.072 61.6982 112.194 59.258 112.98C56.8174 113.728 54.3966 114.101 51.9955 114.101C48.8859 114.101 46.0321 113.492 43.4342 112.272C40.8756 111.013 38.6517 109.361 36.7623 107.316C34.9122 105.231 33.4755 102.91 32.4521 100.353C31.4286 97.7571 30.9169 95.1214 30.9169 92.4467Z" fill="white"/>
<path d="M77.1954 43.8276C77.1954 54.2982 69.8858 62.7088 60.9584 62.7088C52.0307 62.7088 44.7214 54.2982 44.7214 43.8276C44.7214 33.357 52.0307 24.9464 60.9584 24.9464C69.8858 24.9464 77.1954 33.357 77.1954 43.8276ZM61.2536 54.4483C65.8787 54.4483 69.5197 49.7582 69.5197 44.1226C69.5197 38.487 65.8787 33.7969 61.2536 33.7969C56.6286 33.7969 52.9875 38.487 52.9875 44.1226C52.9875 49.7582 56.6286 54.4483 61.2536 54.4483Z" fill="#F7AC1E" fill-opacity="0.8" stroke="white"/>
<path d="M60.9141 56.5134C58.5229 56.5134 56.353 56.0709 54.4046 55.1858C52.4561 54.2713 50.7734 53.0617 49.3563 51.5571C47.9688 50.023 46.8913 48.3119 46.1237 46.4237C45.3857 44.5061 45.0166 42.5295 45.0166 40.4939C45.0166 38.3992 45.4152 36.4078 46.2123 34.5197C47.0094 32.6316 48.1164 30.95 49.5335 29.4749C50.98 27.9703 52.6775 26.7902 54.626 25.9347C56.604 25.0791 58.759 24.6513 61.0913 24.6513C63.4825 24.6513 65.6524 25.1086 67.6008 26.0232C69.5493 26.9082 71.2173 28.1178 72.6048 29.6519C73.9923 31.186 75.0551 32.9119 75.7931 34.8295C76.5607 36.7176 76.9445 38.6647 76.9445 40.6709C76.9445 42.736 76.5459 44.7126 75.7489 46.6008C74.9813 48.4889 73.8742 50.1852 72.4277 51.6898C71.0106 53.1649 69.3279 54.345 67.3794 55.2301C65.431 56.0856 63.2759 56.5134 60.9141 56.5134ZM53.7846 40.5824C53.7846 41.6444 53.9322 42.677 54.2274 43.6801C54.5227 44.6536 54.9655 45.5387 55.5559 46.3352C56.1464 47.1023 56.8844 47.7218 57.7701 48.1939C58.6852 48.6364 59.7628 48.8577 61.0027 48.8577C62.2426 48.8577 63.3202 48.6216 64.2353 48.1496C65.1505 47.6776 65.8886 47.0433 66.4495 46.2467C67.0399 45.4207 67.468 44.5209 67.7337 43.5473C68.0289 42.5442 68.1765 41.5264 68.1765 40.4939C68.1765 39.4318 68.0289 38.414 67.7337 37.4404C67.4385 36.4669 66.9956 35.5965 66.4052 34.8295C65.8148 34.0329 65.062 33.4134 64.1468 32.9709C63.2316 32.5283 62.1688 32.3071 60.9584 32.3071C59.7185 32.3071 58.641 32.5431 57.7258 33.0151C56.8401 33.4872 56.1021 34.1215 55.5116 34.918C54.9212 35.6851 54.4784 36.5701 54.1832 37.5732C53.9175 38.5467 53.7846 39.5498 53.7846 40.5824Z" fill="#FDF36D"/>
</g>
<defs>
<filter id="filter0_ddd_1_114" x="0.879524" y="0.166016" width="299.738" height="169.816" filterUnits="userSpaceOnUse" color-interpolation-filters="sRGB">
<feFlood flood-opacity="0" result="BackgroundImageFix"/>
<feColorMatrix in="SourceAlpha" type="matrix" values="0 0 0 0 0 0 0 0 0 0 0 0 0 0 0 0 0 0 127 0" result="hardAlpha"/>
<feOffset dy="8"/>
<feGaussianBlur stdDeviation="7.5"/>
<feColorMatrix type="matrix" values="0 0 0 0 0.505882 0 0 0 0 0.286275 0 0 0 0 0.964706 0 0 0 0.4 0"/>
<feBlend mode="normal" in2="BackgroundImageFix" result="effect1_dropShadow_1_114"/>
<feColorMatrix in="SourceAlpha" type="matrix" values="0 0 0 0 0 0 0 0 0 0 0 0 0 0 0 0 0 0 127 0" result="hardAlpha"/>
<feOffset dy="10"/>
<feGaussianBlur stdDeviation="10"/>
<feColorMatrix type="matrix" values="0 0 0 0 0.505882 0 0 0 0 0.286275 0 0 0 0 0.964706 0 0 0 0.5 0"/>
<feBlend mode="normal" in2="effect1_dropShadow_1_114" result="effect2_dropShadow_1_114"/>
<feColorMatrix in="SourceAlpha" type="matrix" values="0 0 0 0 0 0 0 0 0 0 0 0 0 0 0 0 0 0 127 0" result="hardAlpha"/>
<feOffset dy="4"/>
<feGaussianBlur stdDeviation="5"/>
<feComposite in2="hardAlpha" operator="out"/>
<feColorMatrix type="matrix" values="0 0 0 0 0.420995 0 0 0 0 0.229888 0 0 0 0 0.820272 0 0 0 0.7 0"/>
<feBlend mode="normal" in2="effect2_dropShadow_1_114" result="effect3_dropShadow_1_114"/>
<feBlend mode="normal" in="SourceGraphic" in2="effect3_dropShadow_1_114" result="shape"/>
</filter>
<linearGradient id="paint0_linear_1_114" x1="150.748" y1="10.166" x2="150.748" y2="139.982" gradientUnits="userSpaceOnUse">
<stop stop-color="#D384FD"/>
<stop offset="1" stop-color="#8567F7"/>
</linearGradient>
<linearGradient id="paint1_linear_1_114" x1="150.748" y1="10.166" x2="150.748" y2="139.982" gradientUnits="userSpaceOnUse">
<stop stop-color="#D384FD"/>
<stop offset="1" stop-color="#8567F7"/>
</linearGradient>
<linearGradient id="paint2_linear_1_114" x1="150.748" y1="10.166" x2="150.748" y2="139.982" gradientUnits="userSpaceOnUse">
<stop stop-color="#D384FD"/>
<stop offset="1" stop-color="#8567F7"/>
</linearGradient>
<linearGradient id="paint3_linear_1_114" x1="150.748" y1="10.166" x2="150.748" y2="139.982" gradientUnits="userSpaceOnUse">
<stop stop-color="#D384FD"/>
<stop offset="1" stop-color="#8567F7"/>
</linearGradient>
<linearGradient id="paint4_linear_1_114" x1="150.748" y1="10.166" x2="150.748" y2="139.982" gradientUnits="userSpaceOnUse">
<stop stop-color="#D384FD"/>
<stop offset="1" stop-color="#8567F7"/>
</linearGradient>
<linearGradient id="paint5_linear_1_114" x1="150.748" y1="10.166" x2="150.748" y2="139.982" gradientUnits="userSpaceOnUse">
<stop stop-color="#D384FD"/>
<stop offset="1" stop-color="#8567F7"/>
</linearGradient>
<linearGradient id="paint6_linear_1_114" x1="150.748" y1="10.166" x2="150.748" y2="139.982" gradientUnits="userSpaceOnUse">
<stop stop-color="#D384FD"/>
<stop offset="1" stop-color="#8567F7"/>
</linearGradient>
<linearGradient id="paint7_linear_1_114" x1="150.748" y1="10.1661" x2="150.748" y2="139.982" gradientUnits="userSpaceOnUse">
<stop stop-color="#D384FD"/>
<stop offset="1" stop-color="#8567F7"/>
</linearGradient>
</defs>
</svg>
