<svg width="329" height="329" viewBox="0 0 329 329" fill="none" xmlns="http://www.w3.org/2000/svg">
<g filter="url(#filter0_d_1_221)">
<g clip-path="url(#clip0_1_221)">
<rect x="16" y="12" width="297" height="297" rx="148.5" fill="#9A7FFF"/>
<path fill-rule="evenodd" clip-rule="evenodd" d="M58.4371 55.9776L159.765 154.188L114.408 21.2452C115.088 21.011 115.77 20.7816 116.455 20.557L149.129 13.7969C152.663 13.4727 156.234 13.272 159.835 13.1993L165.826 149.487L226.338 27.3238C235 31.4103 243.205 36.3078 250.853 41.9182L181.702 149.487L295.104 93.5418C302.382 107.562 307.495 122.886 310 139.072L181.702 160.455L309.265 189.309C307.344 199.676 304.35 209.667 300.4 219.161L181.702 168.29L260.288 274.612C249.972 283.543 238.416 291.081 225.913 296.931L175.434 174.558L155.323 310.697C149.608 310.41 143.978 309.802 138.451 308.888L133.127 307.748L166.033 174.558L64.9424 274.116C51.1524 262.055 39.6079 247.49 31.0183 231.131L159.765 168.29H14.1702C14.0842 166.213 14.0408 164.125 14.0408 162.027C14.0408 154.201 14.6448 146.515 15.8088 139.015L159.765 160.455L35.7866 84.5187C42.1587 74.0907 49.7781 64.5079 58.4371 55.9776Z" fill="url(#paint0_radial_1_221)" fill-opacity="0.5"/>
<g filter="url(#filter1_d_1_221)">
<rect x="109.5" y="205.5" width="112" height="40" rx="20" fill="white" shape-rendering="crispEdges"/>
<path d="M126.445 221.297V219.422H130.195V230H128.008V221.297H126.445ZM134.977 224.594C134.977 227.156 135.628 228.438 136.93 228.438C138.232 228.438 138.883 227.156 138.883 224.594C138.883 222.188 138.232 220.984 136.93 220.984C135.628 220.984 134.977 222.188 134.977 224.594ZM132.695 224.594C132.695 222.76 133.086 221.401 133.867 220.516C134.659 219.63 135.674 219.188 136.914 219.188C137.508 219.188 138.055 219.292 138.555 219.5C139.055 219.698 139.503 220.01 139.898 220.438C140.294 220.854 140.602 221.417 140.82 222.125C141.049 222.833 141.164 223.656 141.164 224.594C141.164 226.458 140.773 227.865 139.992 228.812C139.211 229.76 138.185 230.234 136.914 230.234C135.654 230.234 134.633 229.76 133.852 228.812C133.081 227.865 132.695 226.458 132.695 224.594ZM149.445 226.484C149.445 227.036 149.607 227.5 149.93 227.875C150.263 228.25 150.68 228.438 151.18 228.438C151.69 228.438 152.117 228.25 152.461 227.875C152.805 227.5 152.977 227.036 152.977 226.484C152.977 225.943 152.805 225.51 152.461 225.188C152.128 224.854 151.701 224.688 151.18 224.688C150.669 224.688 150.253 224.854 149.93 225.188C149.607 225.51 149.445 225.943 149.445 226.484ZM147.258 226.484V224.797C147.258 223.953 147.378 223.208 147.617 222.562C147.867 221.917 148.211 221.396 148.648 221C149.096 220.604 149.581 220.292 150.102 220.062C150.622 219.833 151.206 219.672 151.852 219.578L154.477 219.188L154.789 221.188L152.289 221.578C151.164 221.755 150.357 222.052 149.867 222.469C149.378 222.875 149.133 223.578 149.133 224.578C149.372 224.026 149.711 223.609 150.148 223.328C150.586 223.036 151.076 222.891 151.617 222.891C152.69 222.891 153.565 223.229 154.242 223.906C154.919 224.583 155.258 225.443 155.258 226.484C155.258 227.516 154.878 228.401 154.117 229.141C153.367 229.87 152.388 230.234 151.18 230.234C150.013 230.234 149.065 229.87 148.336 229.141C147.617 228.401 147.258 227.516 147.258 226.484ZM158.773 226.047C158.773 226.766 158.93 227.344 159.242 227.781C159.565 228.219 160.008 228.438 160.57 228.438C161.133 228.438 161.57 228.219 161.883 227.781C162.206 227.344 162.367 226.766 162.367 226.047C162.367 225.339 162.206 224.781 161.883 224.375C161.57 223.958 161.133 223.75 160.57 223.75C160.008 223.75 159.565 223.958 159.242 224.375C158.93 224.781 158.773 225.339 158.773 226.047ZM156.508 226.047C156.508 224.849 156.888 223.87 157.648 223.109C158.409 222.339 159.383 221.953 160.57 221.953C161.758 221.953 162.732 222.339 163.492 223.109C164.253 223.87 164.633 224.849 164.633 226.047C164.633 227.255 164.253 228.255 163.492 229.047C162.732 229.839 161.758 230.234 160.57 230.234C159.383 230.234 158.409 229.839 157.648 229.047C156.888 228.255 156.508 227.255 156.508 226.047ZM166.352 230V222.188H168.539V225H171.508V222.188H173.695V230H171.508V226.797H168.539V230H166.352ZM175.102 222.188H177.445L179.445 227.422L181.273 222.188H183.539L180.617 229.922C179.846 231.818 178.654 232.766 177.039 232.766H176.273V230.875H176.992C177.565 230.875 178.008 230.516 178.32 229.797L175.102 222.188ZM184.008 226.047C184.008 224.849 184.388 223.87 185.148 223.109C185.909 222.339 186.883 221.953 188.07 221.953C189.299 221.953 190.253 222.344 190.93 223.125C191.346 223.604 191.555 224.245 191.555 225.047H189.289C189.289 224.661 189.206 224.365 189.039 224.156C188.831 223.885 188.482 223.75 187.992 223.75C187.492 223.75 187.081 223.958 186.758 224.375C186.445 224.781 186.289 225.339 186.289 226.047C186.289 226.755 186.445 227.333 186.758 227.781C187.081 228.219 187.492 228.438 187.992 228.438C188.471 228.438 188.826 228.297 189.055 228.016C189.232 227.797 189.32 227.495 189.32 227.109H191.586C191.586 227.901 191.383 228.536 190.977 229.016C190.279 229.828 189.31 230.234 188.07 230.234C186.883 230.234 185.909 229.839 185.148 229.047C184.388 228.255 184.008 227.255 184.008 226.047ZM193.305 230V222.188H195.336V230H193.305ZM192.992 220.156C192.992 219.812 193.117 219.536 193.367 219.328C193.628 219.109 193.951 219 194.336 219C194.721 219 195.039 219.109 195.289 219.328C195.539 219.536 195.664 219.812 195.664 220.156C195.664 220.51 195.539 220.792 195.289 221C195.039 221.208 194.721 221.312 194.336 221.312C193.951 221.312 193.628 221.208 193.367 221C193.117 220.792 192.992 220.51 192.992 220.156ZM199.555 225.391H200.961C201.43 225.391 201.763 225.333 201.961 225.219C202.169 225.094 202.273 224.891 202.273 224.609C202.273 224.089 201.836 223.828 200.961 223.828H199.555V225.391ZM199.555 228.359H201.117C201.992 228.359 202.43 228.073 202.43 227.5C202.43 226.979 201.992 226.719 201.117 226.719H199.555V228.359ZM197.523 230V222.188H201.117C203.409 222.188 204.555 222.891 204.555 224.297C204.555 225.203 203.888 225.771 202.555 226C203.992 226.167 204.711 226.745 204.711 227.734C204.711 228.422 204.43 228.974 203.867 229.391C203.315 229.797 202.451 230 201.273 230H197.523Z" fill="#1F2024"/>
</g>
<path d="M190.325 176.6V166.923H187.558C182.713 158.878 172.008 153.286 159.585 153.286C147.163 153.286 136.455 158.878 131.61 166.923H128.843V176.6C128.843 189.48 142.606 199.917 159.585 199.917C176.565 199.917 190.325 189.495 190.325 176.6Z" fill="#DF8D12"/>
<path d="M190.325 176.6V166.923H187.558C182.713 158.878 172.008 153.286 159.585 153.286C147.163 153.286 136.455 158.878 131.61 166.923H128.843V176.6C128.843 189.48 142.606 199.917 159.585 199.917C176.565 199.917 190.325 189.495 190.325 176.6Z" fill="url(#paint1_linear_1_221)"/>
<path d="M137.926 176.6V166.923H140.693C144.939 159.875 153.686 154.713 164.127 153.538C162.619 153.37 161.103 153.286 159.585 153.286C147.16 153.286 136.455 158.878 131.61 166.923H128.843V176.6C128.843 189.48 142.606 199.917 159.585 199.917C161.103 199.918 162.619 199.833 164.127 199.663C149.3 197.999 137.926 188.311 137.926 176.6Z" fill="#B76E00"/>
<path d="M159.585 190.241C176.564 190.241 190.328 179.801 190.328 166.924C190.328 154.046 176.564 143.606 159.585 143.606C142.607 143.606 128.843 154.046 128.843 166.924C128.843 179.801 142.607 190.241 159.585 190.241Z" fill="#955100"/>
<path d="M159.585 183.797C171.872 183.797 181.833 176.242 181.833 166.924C181.833 157.605 171.872 150.051 159.585 150.051C147.299 150.051 137.338 157.605 137.338 166.924C137.338 176.242 147.299 183.797 159.585 183.797Z" fill="#EF8521"/>
<path d="M143.865 169.848C143.865 160.449 150.952 152.531 160.602 150.068C160.265 150.068 159.926 150.047 159.586 150.047C147.296 150.047 137.336 157.602 137.336 166.92C137.336 172.917 141.47 178.169 147.671 181.173C145.214 177.91 143.878 173.936 143.865 169.848Z" fill="#E86124"/>
<path d="M187.079 162.59V152.91H184.313C179.464 144.864 168.763 139.272 156.337 139.272C143.911 139.272 133.209 144.864 128.361 152.91H125.594V162.59C125.594 175.466 139.357 185.907 156.337 185.907C173.316 185.907 187.079 175.466 187.079 162.59Z" fill="#DF8D12"/>
<path d="M187.079 162.59V152.91H184.313C179.464 144.864 168.763 139.272 156.337 139.272C143.911 139.272 133.209 144.864 128.361 152.91H125.594V162.59C125.594 175.466 139.357 185.907 156.337 185.907C173.316 185.907 187.079 175.466 187.079 162.59Z" fill="url(#paint2_linear_1_221)"/>
<path d="M134.68 162.59V152.91H137.447C141.69 145.865 150.44 140.702 160.878 139.527C159.37 139.358 157.854 139.273 156.337 139.272C143.911 139.272 133.209 144.864 128.361 152.91H125.594V162.59C125.594 175.466 139.357 185.907 156.337 185.907C157.854 185.906 159.37 185.821 160.878 185.652C146.055 183.989 134.68 174.297 134.68 162.59Z" fill="#B76E00"/>
<path d="M156.337 176.227C173.315 176.227 187.079 165.788 187.079 152.91C187.079 140.032 173.315 129.593 156.337 129.593C139.358 129.593 125.594 140.032 125.594 152.91C125.594 165.788 139.358 176.227 156.337 176.227Z" fill="#955100"/>
<path d="M156.337 169.783C168.623 169.783 178.584 162.229 178.584 152.91C178.584 143.592 168.623 136.037 156.337 136.037C144.05 136.037 134.089 143.592 134.089 152.91C134.089 162.229 144.05 169.783 156.337 169.783Z" fill="#EF8521"/>
<path d="M140.618 155.838C140.618 146.439 147.705 138.521 157.355 136.058C157.016 136.058 156.679 136.037 156.337 136.037C144.049 136.037 134.089 143.592 134.089 152.91C134.089 158.907 138.223 164.159 144.425 167.163C141.965 163.901 140.629 159.927 140.618 155.838Z" fill="#E86124"/>
<path d="M190.325 148.446V138.767H187.558C182.713 130.721 172.008 125.129 159.585 125.129C147.163 125.129 136.455 130.721 131.61 138.767H128.843V148.446C128.843 161.323 142.606 171.76 159.585 171.76C176.565 171.76 190.325 161.323 190.325 148.446Z" fill="#DF8D12"/>
<path d="M190.325 148.446V138.767H187.558C182.713 130.721 172.008 125.129 159.585 125.129C147.163 125.129 136.455 130.721 131.61 138.767H128.843V148.446C128.843 161.323 142.606 171.76 159.585 171.76C176.565 171.76 190.325 161.323 190.325 148.446Z" fill="url(#paint3_linear_1_221)"/>
<path d="M137.926 148.446V138.767H140.693C144.939 131.718 153.686 126.556 164.127 125.384C162.619 125.213 161.103 125.128 159.585 125.129C147.16 125.129 136.455 130.721 131.61 138.767H128.843V148.446C128.843 161.323 142.606 171.761 159.585 171.761C161.103 171.761 162.619 171.677 164.127 171.509C149.3 169.842 137.926 160.151 137.926 148.446Z" fill="#B76E00"/>
<path d="M159.585 162.083C176.564 162.083 190.328 151.644 190.328 138.766C190.328 125.888 176.564 115.449 159.585 115.449C142.607 115.449 128.843 125.888 128.843 138.766C128.843 151.644 142.607 162.083 159.585 162.083Z" fill="#955100"/>
<path d="M159.585 155.639C171.872 155.639 181.833 148.085 181.833 138.766C181.833 129.448 171.872 121.893 159.585 121.893C147.299 121.893 137.338 129.448 137.338 138.766C137.338 148.085 147.299 155.639 159.585 155.639Z" fill="#EF8521"/>
<path d="M143.865 141.691C143.865 132.295 150.952 124.374 160.602 121.911C160.265 121.911 159.926 121.893 159.586 121.893C147.296 121.893 137.336 129.448 137.336 138.766C137.336 144.764 141.47 150.015 147.671 153.02C145.213 149.756 143.878 145.781 143.865 141.691Z" fill="#E86124"/>
<path d="M187.079 134.436V124.756H184.313C179.464 116.71 168.763 111.119 156.337 111.119C143.911 111.119 133.209 116.71 128.361 124.756H125.594V134.436C125.594 147.312 139.357 157.75 156.337 157.75C173.316 157.75 187.079 147.312 187.079 134.436Z" fill="#DF8D12"/>
<path d="M187.079 134.436V124.756H184.313C179.464 116.71 168.763 111.119 156.337 111.119C143.911 111.119 133.209 116.71 128.361 124.756H125.594V134.436C125.594 147.312 139.357 157.75 156.337 157.75C173.316 157.75 187.079 147.312 187.079 134.436Z" fill="url(#paint4_linear_1_221)"/>
<path d="M134.68 134.436V124.756H137.447C141.69 117.708 150.44 112.545 160.878 111.37C159.37 111.202 157.854 111.118 156.337 111.119C143.911 111.119 133.209 116.71 128.361 124.756H125.594V134.436C125.594 147.312 139.357 157.75 156.337 157.75C157.854 157.751 159.37 157.666 160.878 157.495C146.055 155.832 134.68 146.14 134.68 134.436Z" fill="#B76E00"/>
<path d="M134.68 134.436V124.756H137.447C141.69 117.708 150.44 112.545 160.878 111.37C159.37 111.202 157.854 111.118 156.337 111.119C143.911 111.119 133.209 116.71 128.361 124.756H125.594V134.436C125.594 147.312 139.357 157.75 156.337 157.75C157.854 157.751 159.37 157.666 160.878 157.495C146.055 155.832 134.68 146.14 134.68 134.436Z" fill="url(#paint5_linear_1_221)"/>
<path d="M156.337 148.073C173.315 148.073 187.079 137.634 187.079 124.756C187.079 111.878 173.315 101.439 156.337 101.439C139.358 101.439 125.594 111.878 125.594 124.756C125.594 137.634 139.358 148.073 156.337 148.073Z" fill="#955100"/>
<path d="M156.337 141.629C168.623 141.629 178.584 134.075 178.584 124.756C178.584 115.438 168.623 107.883 156.337 107.883C144.05 107.883 134.089 115.438 134.089 124.756C134.089 134.075 144.05 141.629 156.337 141.629Z" fill="#EF8521"/>
<path d="M140.618 127.68C140.618 118.282 147.705 110.363 157.355 107.901C157.016 107.901 156.679 107.88 156.337 107.88C144.049 107.88 134.089 115.434 134.089 124.753C134.089 130.75 138.223 136.001 144.425 139.006C141.966 135.743 140.63 131.769 140.618 127.68Z" fill="#DF8D12"/>
<path d="M243.318 181.067V171.387H240.551C235.702 163.341 225.001 157.75 212.575 157.75C200.149 157.75 189.445 163.341 184.599 171.387H181.832V181.067C181.832 193.944 195.596 204.384 212.575 204.384C229.554 204.384 243.318 193.935 243.318 181.067Z" fill="#DF8D12"/>
<path d="M243.318 181.067V171.387H240.551C235.702 163.341 225.001 157.75 212.575 157.75C200.149 157.75 189.445 163.341 184.599 171.387H181.832V181.067C181.832 193.944 195.596 204.384 212.575 204.384C229.554 204.384 243.318 193.935 243.318 181.067Z" fill="url(#paint6_linear_1_221)"/>
<path d="M190.915 181.067V171.387H193.682C197.928 164.342 206.675 159.176 217.116 158.004C215.609 157.834 214.092 157.749 212.575 157.75C200.149 157.75 189.445 163.341 184.599 171.387H181.832V181.067C181.832 193.944 195.596 204.384 212.575 204.384C214.092 204.384 215.608 204.299 217.116 204.129C202.293 202.463 190.915 192.774 190.915 181.067Z" fill="url(#paint7_linear_1_221)"/>
<path d="M212.575 194.704C229.554 194.704 243.318 184.265 243.318 171.387C243.318 158.509 229.554 148.07 212.575 148.07C195.596 148.07 181.832 158.509 181.832 171.387C181.832 184.265 195.596 194.704 212.575 194.704Z" fill="#955100"/>
<path d="M212.576 188.26C224.863 188.26 234.823 180.706 234.823 171.387C234.823 162.069 224.863 154.515 212.576 154.515C200.289 154.515 190.329 162.069 190.329 171.387C190.329 180.706 200.289 188.26 212.576 188.26Z" fill="#955100"/>
<path d="M196.855 174.312C196.855 164.917 203.942 156.995 213.592 154.532C213.255 154.532 212.915 154.515 212.576 154.515C200.289 154.515 190.326 162.069 190.326 171.387C190.326 177.385 194.46 182.636 200.661 185.641C198.203 182.377 196.867 178.402 196.855 174.312Z" fill="#E86124"/>
<path d="M238.626 164.946V155.266H235.859C231.013 147.221 220.309 141.629 207.883 141.629C195.457 141.629 184.756 147.221 179.91 155.266H177.143V164.946C177.143 177.823 190.907 188.26 207.883 188.26C224.86 188.26 238.626 177.823 238.626 164.946Z" fill="#DF8D12"/>
<path d="M238.626 164.946V155.266H235.859C231.013 147.221 220.309 141.629 207.883 141.629C195.457 141.629 184.756 147.221 179.91 155.266H177.143V164.946C177.143 177.823 190.907 188.26 207.883 188.26C224.86 188.26 238.626 177.823 238.626 164.946Z" fill="url(#paint8_linear_1_221)"/>
<path d="M186.227 164.946V155.266H188.985C193.231 148.218 201.977 143.056 212.419 141.881C210.913 141.713 209.399 141.629 207.883 141.629C195.46 141.629 184.756 147.221 179.91 155.266H177.143V164.946C177.143 177.823 190.907 188.26 207.883 188.26C209.402 188.261 210.919 188.177 212.428 188.009C197.601 186.342 186.227 176.651 186.227 164.946Z" fill="url(#paint9_linear_1_221)"/>
<path d="M207.883 178.583C224.862 178.583 238.626 168.144 238.626 155.266C238.626 142.388 224.862 131.949 207.883 131.949C190.904 131.949 177.14 142.388 177.14 155.266C177.14 168.144 190.904 178.583 207.883 178.583Z" fill="#955100"/>
<path d="M207.883 172.139C220.17 172.139 230.13 164.585 230.13 155.266C230.13 145.948 220.17 138.393 207.883 138.393C195.596 138.393 185.636 145.948 185.636 155.266C185.636 164.585 195.596 172.139 207.883 172.139Z" fill="#EF8521"/>
<path d="M192.165 158.191C192.165 148.795 199.252 140.874 208.902 138.411C208.565 138.399 208.226 138.393 207.883 138.393C195.596 138.393 185.636 145.948 185.636 155.266C185.636 161.264 189.77 166.515 195.971 169.519C193.513 166.256 192.177 162.28 192.165 158.191Z" fill="#E86124"/>
<path d="M149.688 162.82L142.491 156.367L140.646 158.439C131.433 156.696 120.141 160.967 111.858 170.25C103.575 179.534 100.595 191.271 103.35 200.243L101.505 202.315L108.701 208.768C118.277 217.353 135.215 214.028 146.534 201.341C157.852 188.654 159.264 171.405 149.688 162.82Z" fill="url(#paint10_linear_1_221)"/>
<path d="M114.754 201.975L107.558 195.522L109.404 193.449C106.994 185.578 108.978 175.609 115.073 167.018C113.941 168.035 112.868 169.115 111.858 170.254C103.589 179.54 100.595 191.271 103.347 200.249L101.502 202.321L108.698 208.774C118.274 217.359 135.212 214.034 146.531 201.347C147.543 200.218 148.49 199.032 149.368 197.795C138.248 207.738 123.46 209.781 114.754 201.975Z" fill="#B76E00"/>
<path d="M114.754 201.975L107.558 195.522L109.404 193.449C106.994 185.578 108.978 175.609 115.073 167.018C113.941 168.035 112.868 169.115 111.858 170.254C103.589 179.54 100.595 191.271 103.347 200.249L101.502 202.321L108.698 208.774C118.274 217.359 135.212 214.034 146.531 201.347C147.543 200.218 148.49 199.032 149.368 197.795C138.248 207.738 123.46 209.781 114.754 201.975Z" fill="url(#paint11_linear_1_221)"/>
<path d="M139.331 194.885C150.65 182.198 152.064 164.954 142.489 156.369C132.914 147.784 115.976 151.109 104.657 163.795C93.3379 176.482 91.924 193.726 101.499 202.311C111.074 210.896 128.012 207.571 139.331 194.885Z" fill="#955100"/>
<path d="M134.54 190.589C142.731 181.408 143.755 168.93 136.826 162.718C129.897 156.505 117.64 158.911 109.449 168.092C101.258 177.272 100.234 189.751 107.163 195.963C114.092 202.176 126.349 199.77 134.54 190.589Z" fill="#EF8521"/>
<path d="M113.685 193.047C106.698 186.783 105.526 176.216 110.142 167.356C109.907 167.599 109.677 167.847 109.451 168.102C101.259 177.278 100.235 189.761 107.165 195.975C111.624 199.974 118.292 200.397 124.661 197.751C120.59 197.417 116.738 195.766 113.685 193.047Z" fill="#E86124"/>
<g clip-path="url(#clip1_1_221)">
<path d="M99.4152 197.437C105.77 208.231 120.999 209.343 133.407 199.997C145.816 190.651 150.779 174.328 144.424 163.534C138.069 152.74 122.84 151.628 110.432 160.974C98.0235 170.321 93.06 186.643 99.4152 197.437Z" fill="#A56402" stroke="#955100" stroke-width="2"/>
<path d="M99.5002 195.217C105.855 206.011 121.084 207.123 133.492 197.777C145.901 188.431 150.864 172.108 144.509 161.314C138.154 150.52 122.925 149.408 110.517 158.754C98.1085 168.101 93.1451 184.423 99.5002 195.217Z" fill="url(#paint12_linear_1_221)" stroke="#955100" stroke-width="2"/>
<path d="M103.592 192.135C108.76 200.913 121.195 201.759 131.338 194.119C141.482 186.478 145.585 173.174 140.417 164.396C135.249 155.619 122.814 154.772 112.671 162.413C102.527 170.053 98.4239 183.357 103.592 192.135Z" fill="#FFCF23"/>
<path d="M103.592 192.135C108.76 200.913 121.195 201.759 131.338 194.119C141.482 186.478 145.585 173.174 140.417 164.396C135.249 155.619 122.814 154.772 112.671 162.413C102.527 170.053 98.4239 183.357 103.592 192.135Z" fill="url(#paint13_linear_1_221)"/>
<path d="M103.592 192.135C108.76 200.913 121.195 201.759 131.338 194.119C141.482 186.478 145.585 173.174 140.417 164.396C135.249 155.619 122.814 154.772 112.671 162.413C102.527 170.053 98.4239 183.357 103.592 192.135Z" stroke="#DF8D12" stroke-width="2"/>
<path fill-rule="evenodd" clip-rule="evenodd" d="M141.793 175.086C141.741 172.232 141.049 169.506 139.65 167.13C134.694 158.712 122.737 157.866 112.945 165.243C106.626 170.002 102.752 177.022 102.131 183.666C101.998 176.407 106.001 168.317 113.03 163.023C122.822 155.646 134.779 156.492 139.735 164.91C141.493 167.896 142.135 171.434 141.793 175.086Z" fill="#FFDD65"/>
<path d="M125.952 159.912C125.952 159.912 123.251 159.852 120.507 160.902" stroke="white" stroke-linecap="round" stroke-linejoin="round"/>
<path d="M113.86 174.702C117.193 177.607 116.768 181.957 113.164 186.123C111.711 187.896 113.937 190.434 115.492 188.735C119.097 184.569 124.132 183.654 127.466 186.559C128.166 187.169 129.372 186.484 129.651 186.161C130.278 185.437 131.352 184.195 130.044 183.055C126.711 180.15 126.599 175.897 130.204 171.731C130.831 171.006 131.177 169.13 130.597 168.625C130.017 168.12 128.731 169.176 128.104 169.901C124.499 174.067 118.683 174.302 115.35 171.397C113.914 170.247 112.52 173.426 113.86 174.702ZM124.784 175.866C124.202 177.882 124.125 179.894 124.56 181.725C122.692 181.55 120.719 181.908 118.812 182.77C119.394 180.754 119.471 178.742 119.036 176.911C120.904 177.086 122.877 176.727 124.784 175.866Z" fill="#FFDD65"/>
<g filter="url(#filter2_i_1_221)">
<path d="M113.902 173.592C117.236 176.497 117.039 181.629 113.435 185.795C111.982 187.568 113.979 189.324 115.534 187.625C119.139 183.459 124.175 182.544 127.508 185.449C128.088 185.954 129.066 185.776 129.693 185.051C130.32 184.327 130.358 183.329 129.779 182.824C126.445 179.919 126.642 174.787 130.246 170.621C130.873 169.896 130.911 168.899 130.332 168.393C129.752 167.888 128.773 168.066 128.146 168.791C124.542 172.957 119.506 173.872 116.173 170.967C114.737 169.817 112.562 172.316 113.902 173.592ZM124.827 174.756C124.245 176.772 124.168 178.784 124.602 180.615C122.735 180.44 120.761 180.798 118.854 181.66C119.436 179.644 119.513 177.632 119.079 175.801C120.946 175.976 122.92 175.617 124.827 174.756Z" fill="#DF8D12"/>
</g>
<path d="M124.295 184.926C124.295 184.926 121.897 183.984 118.849 185.916" stroke="white" stroke-linecap="round" stroke-linejoin="round"/>
<path d="M131.369 203.642C131.369 203.642 139.462 200.258 146.206 187.398" stroke="white" stroke-linecap="round" stroke-linejoin="round"/>
</g>
<g clip-path="url(#clip2_1_221)">
<path d="M127.476 121.41C124.021 133.609 133.821 145.59 149.297 148.206C164.772 150.822 180.154 143.099 183.609 130.9C187.065 118.701 177.264 106.721 161.789 104.104C146.314 101.488 130.932 109.212 127.476 121.41Z" fill="#A56402" stroke="#955100" stroke-width="2"/>
<path d="M129.157 119.926C125.702 132.124 135.502 144.105 150.977 146.721C166.452 149.338 181.835 141.614 185.29 129.415C188.746 117.217 178.945 105.236 163.47 102.62C147.995 100.004 132.613 107.727 129.157 119.926Z" fill="url(#paint14_linear_1_221)" stroke="#955100" stroke-width="2"/>
<path d="M134.26 120.788C131.45 130.709 139.498 140.448 152.149 142.587C164.799 144.726 177.377 138.473 180.187 128.553C182.998 118.633 174.95 108.893 162.299 106.754C149.649 104.616 137.071 110.868 134.26 120.788Z" fill="url(#paint15_linear_1_221)" stroke="#DF8D12" stroke-width="2"/>
<path fill-rule="evenodd" clip-rule="evenodd" d="M173.338 137.015C175.387 134.987 176.895 132.579 177.656 129.894C180.351 120.379 172.636 110.993 160.423 108.928C152.542 107.596 144.714 109.638 139.429 113.811C144.638 108.654 153.338 105.962 162.104 107.444C174.317 109.508 182.032 118.895 179.337 128.409C178.381 131.784 176.244 134.721 173.338 137.015Z" fill="#FFDD65"/>
<path d="M173.382 114.784C173.382 114.784 171.543 112.755 168.864 111.467" stroke="white" stroke-linecap="round" stroke-linejoin="round"/>
<path d="M154.151 116.194C154.352 120.671 150.878 123.39 145.323 123.642C143.016 123.808 142.713 127.214 145.037 127.175C150.593 126.924 154.771 129.991 154.972 134.468C155.014 135.409 156.355 135.819 156.785 135.799C157.751 135.756 159.408 135.681 159.329 133.924C159.128 129.446 162.157 126.401 167.712 126.149C168.678 126.105 170.29 125.053 170.255 124.274C170.22 123.495 168.551 123.285 167.585 123.329C162.03 123.58 157.805 119.465 157.603 114.987C157.443 113.129 154.149 114.319 154.151 116.194ZM160.914 125.044C159.036 126.02 157.513 127.366 156.478 128.961C155.304 127.465 153.667 126.263 151.709 125.46C153.587 124.484 155.11 123.138 156.145 121.542C157.318 123.038 158.956 124.241 160.914 125.044Z" fill="#FFDD65"/>
<g filter="url(#filter3_i_1_221)">
<path d="M154.992 115.451C155.193 119.929 151.307 123.361 145.751 123.613C143.444 123.779 143.553 126.472 145.878 126.433C151.433 126.182 155.611 129.249 155.813 133.726C155.848 134.505 156.659 135.101 157.626 135.057C158.592 135.013 159.347 134.346 159.312 133.568C159.111 129.09 162.997 125.658 168.552 125.407C169.519 125.363 170.274 124.696 170.239 123.917C170.204 123.139 169.392 122.543 168.426 122.586C162.87 122.838 158.692 119.771 158.491 115.293C158.33 113.435 154.989 113.577 154.992 115.451ZM161.754 124.301C159.876 125.278 158.353 126.623 157.318 128.219C156.145 126.723 154.507 125.521 152.549 124.718C154.427 123.741 155.95 122.396 156.985 120.8C158.159 122.296 159.796 123.498 161.754 124.301Z" fill="#DF8D12"/>
</g>
<path d="M153.954 130.998C153.954 130.998 152.972 128.577 149.436 127.681" stroke="white" stroke-linecap="round" stroke-linejoin="round"/>
<path d="M149.578 150.171C149.578 150.171 159.019 152.879 172.507 146.787" stroke="white" stroke-linecap="round" stroke-linejoin="round"/>
</g>
<path d="M152.95 162.239C152.95 162.239 162.391 164.947 175.879 158.855" stroke="white" stroke-linecap="round" stroke-linejoin="round"/>
<g clip-path="url(#clip3_1_221)">
<path d="M179.262 150.932C175.815 162.817 185.549 174.478 200.934 177.012C216.319 179.546 231.621 172.009 235.068 160.124C238.515 148.238 228.781 136.578 213.396 134.044C198.011 131.509 182.709 139.047 179.262 150.932Z" fill="#A56402" stroke="#955100" stroke-width="2"/>
<path d="M180.935 149.484C177.488 161.37 187.222 173.031 202.607 175.565C217.991 178.099 233.293 170.562 236.74 158.676C240.188 146.791 230.454 135.13 215.069 132.596C199.684 130.062 184.382 137.599 180.935 149.484Z" fill="url(#paint16_linear_1_221)" stroke="#955100" stroke-width="2"/>
<path d="M186.008 150.32C183.205 159.985 191.198 169.465 203.775 171.536C216.352 173.608 228.864 167.506 231.667 157.841C234.47 148.175 226.477 138.696 213.9 136.624C201.324 134.553 188.811 140.655 186.008 150.32Z" fill="#FFCF23"/>
<path d="M186.008 150.32C183.205 159.985 191.198 169.465 203.775 171.536C216.352 173.608 228.864 167.506 231.667 157.841C234.47 148.175 226.477 138.696 213.9 136.624C201.324 134.553 188.811 140.655 186.008 150.32Z" fill="url(#paint17_linear_1_221)"/>
<path d="M186.008 150.32C183.205 159.985 191.198 169.465 203.775 171.536C216.352 173.608 228.864 167.506 231.667 157.841C234.47 148.175 226.477 138.696 213.9 136.624C201.324 134.553 188.811 140.655 186.008 150.32Z" stroke="#DF8D12" stroke-width="2"/>
<path fill-rule="evenodd" clip-rule="evenodd" d="M224.849 166.09C226.888 164.113 228.39 161.765 229.149 159.149C231.837 149.879 224.174 140.743 212.033 138.743C204.198 137.453 196.413 139.449 191.153 143.519C196.338 138.491 204.991 135.86 213.706 137.296C225.847 139.296 233.51 148.431 230.822 157.701C229.868 160.989 227.74 163.853 224.849 166.09Z" fill="#FFDD65"/>
<path d="M224.913 144.435C224.913 144.435 223.087 142.46 220.424 141.209" stroke="white" stroke-linecap="round" stroke-linejoin="round"/>
<path d="M205.79 145.826C205.986 150.187 202.529 152.839 197.005 153.089C194.711 153.253 194.406 156.571 196.718 156.531C202.242 156.281 206.394 159.265 206.59 163.626C206.631 164.542 207.964 164.94 208.391 164.921C209.352 164.877 210.999 164.803 210.922 163.091C210.726 158.73 213.741 155.761 219.265 155.511C220.225 155.467 221.829 154.44 221.795 153.682C221.761 152.924 220.102 152.72 219.141 152.764C213.617 153.014 209.42 149.009 209.224 144.648C209.066 142.838 205.789 144 205.79 145.826ZM212.506 154.44C210.638 155.393 209.122 156.705 208.092 158.26C206.926 156.804 205.299 155.635 203.353 154.854C205.221 153.901 206.737 152.59 207.767 151.034C208.933 152.49 210.56 153.66 212.506 154.44Z" fill="#FFDD65"/>
<g filter="url(#filter4_i_1_221)">
<path d="M206.626 145.102C206.822 149.463 202.955 152.81 197.431 153.06C195.137 153.225 195.243 155.848 197.554 155.807C203.078 155.557 207.23 158.541 207.426 162.902C207.46 163.66 208.267 164.24 209.228 164.197C210.188 164.153 210.94 163.503 210.906 162.745C210.71 158.384 214.577 155.037 220.101 154.787C221.062 154.744 221.813 154.093 221.779 153.335C221.745 152.576 220.938 151.996 219.978 152.04C214.454 152.29 210.302 149.306 210.106 144.945C209.948 143.135 206.626 143.276 206.626 145.102ZM213.343 153.716C211.474 154.669 209.959 155.981 208.928 157.537C207.763 156.08 206.136 154.911 204.189 154.131C206.058 153.178 207.573 151.866 208.604 150.31C209.769 151.767 211.396 152.936 213.343 153.716Z" fill="#DF8D12"/>
</g>
<path d="M205.581 160.246C205.581 160.246 204.606 157.889 201.091 157.02" stroke="white" stroke-linecap="round" stroke-linejoin="round"/>
<path d="M201.506 178.483C201.506 178.483 210.947 181.191 224.435 175.099" stroke="white" stroke-linecap="round" stroke-linejoin="round"/>
</g>
<path d="M206.901 194.727C206.901 194.727 216.342 197.435 229.83 191.343" stroke="white" stroke-linecap="round" stroke-linejoin="round"/>
</g>
<rect x="19" y="15" width="291" height="291" rx="145.5" stroke="url(#paint18_linear_1_221)" stroke-width="6"/>
</g>
<defs>
<filter id="filter0_d_1_221" x="0" y="0" width="329" height="329" filterUnits="userSpaceOnUse" color-interpolation-filters="sRGB">
<feFlood flood-opacity="0" result="BackgroundImageFix"/>
<feColorMatrix in="SourceAlpha" type="matrix" values="0 0 0 0 0 0 0 0 0 0 0 0 0 0 0 0 0 0 127 0" result="hardAlpha"/>
<feOffset dy="4"/>
<feGaussianBlur stdDeviation="8"/>
<feComposite in2="hardAlpha" operator="out"/>
<feColorMatrix type="matrix" values="0 0 0 0 0 0 0 0 0 0 0 0 0 0 0 0 0 0 0.25 0"/>
<feBlend mode="normal" in2="BackgroundImageFix" result="effect1_dropShadow_1_221"/>
<feBlend mode="normal" in="SourceGraphic" in2="effect1_dropShadow_1_221" result="shape"/>
</filter>
<filter id="filter1_d_1_221" x="109.5" y="205.5" width="112" height="44" filterUnits="userSpaceOnUse" color-interpolation-filters="sRGB">
<feFlood flood-opacity="0" result="BackgroundImageFix"/>
<feColorMatrix in="SourceAlpha" type="matrix" values="0 0 0 0 0 0 0 0 0 0 0 0 0 0 0 0 0 0 127 0" result="hardAlpha"/>
<feOffset dy="4"/>
<feComposite in2="hardAlpha" operator="out"/>
<feColorMatrix type="matrix" values="0 0 0 0 0 0 0 0 0 0 0 0 0 0 0 0 0 0 0.25 0"/>
<feBlend mode="normal" in2="BackgroundImageFix" result="effect1_dropShadow_1_221"/>
<feBlend mode="normal" in="SourceGraphic" in2="effect1_dropShadow_1_221" result="shape"/>
</filter>
<filter id="filter2_i_1_221" x="112.931" y="168.106" width="17.8116" height="24.2095" filterUnits="userSpaceOnUse" color-interpolation-filters="sRGB">
<feFlood flood-opacity="0" result="BackgroundImageFix"/>
<feBlend mode="normal" in="SourceGraphic" in2="BackgroundImageFix" result="shape"/>
<feColorMatrix in="SourceAlpha" type="matrix" values="0 0 0 0 0 0 0 0 0 0 0 0 0 0 0 0 0 0 127 0" result="hardAlpha"/>
<feOffset dy="4"/>
<feGaussianBlur stdDeviation="2"/>
<feComposite in2="hardAlpha" operator="arithmetic" k2="-1" k3="1"/>
<feColorMatrix type="matrix" values="0 0 0 0 0.356863 0 0 0 0 0.2 0 0 0 0 0.0117647 0 0 0 0.05 0"/>
<feBlend mode="normal" in2="shape" result="effect1_innerShadow_1_221"/>
</filter>
<filter id="filter3_i_1_221" x="144.076" y="113.97" width="26.1636" height="25.0892" filterUnits="userSpaceOnUse" color-interpolation-filters="sRGB">
<feFlood flood-opacity="0" result="BackgroundImageFix"/>
<feBlend mode="normal" in="SourceGraphic" in2="BackgroundImageFix" result="shape"/>
<feColorMatrix in="SourceAlpha" type="matrix" values="0 0 0 0 0 0 0 0 0 0 0 0 0 0 0 0 0 0 127 0" result="hardAlpha"/>
<feOffset dy="4"/>
<feGaussianBlur stdDeviation="2"/>
<feComposite in2="hardAlpha" operator="arithmetic" k2="-1" k3="1"/>
<feColorMatrix type="matrix" values="0 0 0 0 0.356863 0 0 0 0 0.2 0 0 0 0 0.0117647 0 0 0 0.05 0"/>
<feBlend mode="normal" in2="shape" result="effect1_innerShadow_1_221"/>
</filter>
<filter id="filter4_i_1_221" x="195.764" y="143.658" width="26.0161" height="24.5413" filterUnits="userSpaceOnUse" color-interpolation-filters="sRGB">
<feFlood flood-opacity="0" result="BackgroundImageFix"/>
<feBlend mode="normal" in="SourceGraphic" in2="BackgroundImageFix" result="shape"/>
<feColorMatrix in="SourceAlpha" type="matrix" values="0 0 0 0 0 0 0 0 0 0 0 0 0 0 0 0 0 0 127 0" result="hardAlpha"/>
<feOffset dy="4"/>
<feGaussianBlur stdDeviation="2"/>
<feComposite in2="hardAlpha" operator="arithmetic" k2="-1" k3="1"/>
<feColorMatrix type="matrix" values="0 0 0 0 0.356863 0 0 0 0 0.2 0 0 0 0 0.0117647 0 0 0 0.05 0"/>
<feBlend mode="normal" in2="shape" result="effect1_innerShadow_1_221"/>
</filter>
<radialGradient id="paint0_radial_1_221" cx="0" cy="0" r="1" gradientUnits="userSpaceOnUse" gradientTransform="translate(162.02 161.948) rotate(90) scale(148.749 147.98)">
<stop offset="0.53125" stop-color="#F9F9F9"/>
<stop offset="1" stop-color="white" stop-opacity="0"/>
</radialGradient>
<linearGradient id="paint1_linear_1_221" x1="161.705" y1="162.656" x2="215.573" y2="178.558" gradientUnits="userSpaceOnUse">
<stop offset="0.2" stop-color="#794D0A"/>
<stop offset="0.46" stop-color="#DF8D12"/>
<stop offset="0.55331" stop-color="#FFC979"/>
<stop offset="1" stop-color="#FFAD32"/>
</linearGradient>
<linearGradient id="paint2_linear_1_221" x1="158.458" y1="148.643" x2="212.329" y2="164.546" gradientUnits="userSpaceOnUse">
<stop offset="0.2" stop-color="#794D0A"/>
<stop offset="0.46" stop-color="#DF8D12"/>
<stop offset="0.55331" stop-color="#FFC979"/>
<stop offset="1" stop-color="#FFAD32"/>
</linearGradient>
<linearGradient id="paint3_linear_1_221" x1="161.705" y1="134.499" x2="215.573" y2="150.401" gradientUnits="userSpaceOnUse">
<stop offset="0.2" stop-color="#794D0A"/>
<stop offset="0.46" stop-color="#DF8D12"/>
<stop offset="0.55331" stop-color="#FFC979"/>
<stop offset="1" stop-color="#FFAD32"/>
</linearGradient>
<linearGradient id="paint4_linear_1_221" x1="158.458" y1="120.489" x2="212.328" y2="136.392" gradientUnits="userSpaceOnUse">
<stop offset="0.2" stop-color="#794D0A"/>
<stop offset="0.46" stop-color="#DF8D12"/>
<stop offset="0.55331" stop-color="#FFC979"/>
<stop offset="1" stop-color="#FFAD32"/>
</linearGradient>
<linearGradient id="paint5_linear_1_221" x1="125.594" y1="134.434" x2="160.878" y2="134.434" gradientUnits="userSpaceOnUse">
<stop stop-color="#FF9900"/>
<stop offset="1" stop-color="#C67700"/>
</linearGradient>
<linearGradient id="paint6_linear_1_221" x1="214.696" y1="167.121" x2="268.567" y2="183.023" gradientUnits="userSpaceOnUse">
<stop offset="0.2" stop-color="#794D0A"/>
<stop offset="0.46" stop-color="#DF8D12"/>
<stop offset="0.55331" stop-color="#FFC979"/>
<stop offset="1" stop-color="#FFAD32"/>
</linearGradient>
<linearGradient id="paint7_linear_1_221" x1="181.832" y1="181.067" x2="217.116" y2="181.067" gradientUnits="userSpaceOnUse">
<stop stop-color="#FF9900"/>
<stop offset="1" stop-color="#C67700"/>
</linearGradient>
<linearGradient id="paint8_linear_1_221" x1="210.006" y1="150.999" x2="263.874" y2="166.901" gradientUnits="userSpaceOnUse">
<stop offset="0.2" stop-color="#794D0A"/>
<stop offset="0.46" stop-color="#DF8D12"/>
<stop offset="0.55331" stop-color="#FFC979"/>
<stop offset="1" stop-color="#FFAD32"/>
</linearGradient>
<linearGradient id="paint9_linear_1_221" x1="177.143" y1="164.945" x2="212.428" y2="164.945" gradientUnits="userSpaceOnUse">
<stop stop-color="#FF9900"/>
<stop offset="1" stop-color="#C67700"/>
</linearGradient>
<linearGradient id="paint10_linear_1_221" x1="150.712" y1="146.594" x2="113.989" y2="209.682" gradientUnits="userSpaceOnUse">
<stop offset="0.2" stop-color="#794D0A"/>
<stop offset="0.46" stop-color="#DF8D12"/>
<stop offset="0.55331" stop-color="#FFC979"/>
<stop offset="1" stop-color="#FFAD32"/>
</linearGradient>
<linearGradient id="paint11_linear_1_221" x1="101.502" y1="190.28" x2="149.368" y2="190.28" gradientUnits="userSpaceOnUse">
<stop stop-color="#FF9900"/>
<stop offset="1" stop-color="#C67700"/>
</linearGradient>
<linearGradient id="paint12_linear_1_221" x1="140.644" y1="156.722" x2="103.211" y2="199.675" gradientUnits="userSpaceOnUse">
<stop stop-color="#FFB423"/>
<stop offset="1" stop-color="#FFCC00"/>
</linearGradient>
<linearGradient id="paint13_linear_1_221" x1="102.615" y1="183.625" x2="152.35" y2="174.311" gradientUnits="userSpaceOnUse">
<stop stop-color="#FFCF23"/>
<stop offset="1" stop-color="#FFEA00"/>
</linearGradient>
<linearGradient id="paint14_linear_1_221" x1="185.951" y1="123.371" x2="128.496" y2="125.952" gradientUnits="userSpaceOnUse">
<stop stop-color="#FFB423"/>
<stop offset="1" stop-color="#FFCC00"/>
</linearGradient>
<linearGradient id="paint15_linear_1_221" x1="139.796" y1="114.139" x2="181.404" y2="144.044" gradientUnits="userSpaceOnUse">
<stop stop-color="#FFCF23"/>
<stop offset="1" stop-color="#FFEA00"/>
</linearGradient>
<linearGradient id="paint16_linear_1_221" x1="237.403" y1="152.788" x2="180.271" y2="155.354" gradientUnits="userSpaceOnUse">
<stop stop-color="#FFB423"/>
<stop offset="1" stop-color="#FFCC00"/>
</linearGradient>
<linearGradient id="paint17_linear_1_221" x1="191.518" y1="143.838" x2="232.261" y2="173.748" gradientUnits="userSpaceOnUse">
<stop stop-color="#FFCF23"/>
<stop offset="1" stop-color="#FFEA00"/>
</linearGradient>
<linearGradient id="paint18_linear_1_221" x1="164.5" y1="12" x2="164.5" y2="309" gradientUnits="userSpaceOnUse">
<stop stop-color="#CBACFF"/>
<stop offset="1" stop-color="#A774FF"/>
</linearGradient>
<clipPath id="clip0_1_221">
<rect x="16" y="12" width="297" height="297" rx="148.5" fill="white"/>
</clipPath>
<clipPath id="clip1_1_221">
<rect width="54.8321" height="69.1813" fill="white" transform="matrix(0.753897 0.656992 -0.654279 0.756253 124.031 135.373)"/>
</clipPath>
<clipPath id="clip2_1_221">
<rect width="55.5787" height="69.8348" fill="white" transform="matrix(0.044881 0.998992 -0.998978 0.0452073 189.968 96.2683)"/>
</clipPath>
<clipPath id="clip3_1_221">
<rect width="54.1343" height="69.4412" fill="white" transform="matrix(0.044881 0.998992 -0.998978 0.0452073 241.422 126.385)"/>
</clipPath>
</defs>
</svg>
