<svg width="46" height="47" viewBox="0 0 46 47" fill="none" xmlns="http://www.w3.org/2000/svg">
<path d="M7.1755 25.0169C5.40233 23.2279 4.3125 20.7986 4.3125 18.1227C4.3125 12.6241 8.91417 8.16666 14.5906 8.16666C17.6115 8.16666 20.328 10.9671 22.2086 13.3798C22.6087 13.8932 23.3913 13.8932 23.7914 13.3798C25.672 10.9671 28.3885 8.16666 31.4094 8.16666C37.0858 8.16666 41.6875 12.6241 41.6875 18.1227C41.6875 20.9299 40.4881 23.4657 38.5586 25.2756L24.3514 39.4059C23.6038 40.1495 22.3961 40.1496 21.6484 39.4062L7.1755 25.0169Z" fill="#E95252"/>
<path fill-rule="evenodd" clip-rule="evenodd" d="M6.49982 25.6965L6.49484 25.6915C4.55415 23.7335 3.35416 21.0656 3.35416 18.1227C3.35416 12.0663 8.41388 7.20831 14.5906 7.20831C16.3994 7.20831 18.038 8.04378 19.4145 9.11112C20.7974 10.1835 22.0034 11.5576 22.9644 12.7907C22.97 12.7978 22.9741 12.8003 22.9776 12.802C22.9825 12.8043 22.9902 12.8065 23 12.8065C23.0098 12.8065 23.0175 12.8043 23.0224 12.802C23.0259 12.8003 23.03 12.7978 23.0356 12.7907C23.9966 11.5576 25.2026 10.1835 26.5855 9.11112C27.962 8.04378 29.6006 7.20831 31.4094 7.20831C37.5861 7.20831 42.6458 12.0663 42.6458 18.1227C42.6458 21.2053 41.3294 23.9854 39.2246 25.9648L25.0272 40.0854C23.9058 41.2007 22.0943 41.2009 20.9727 40.0858L6.49982 25.6965ZM38.5586 25.2756C40.4881 23.4657 41.6875 20.9299 41.6875 18.1227C41.6875 12.6241 37.0858 8.16665 31.4094 8.16665C28.3885 8.16665 25.672 10.967 23.7914 13.3798C23.3913 13.8932 22.6086 13.8932 22.2086 13.3798C20.328 10.967 17.6115 8.16665 14.5906 8.16665C8.91416 8.16665 4.31249 12.6241 4.31249 18.1227C4.31249 20.7986 5.40232 23.2279 7.17549 25.0169L21.6484 39.4062C22.3961 40.1496 23.6038 40.1494 24.3513 39.4059L38.5586 25.2756Z" fill="#60050F"/>
<path fill-rule="evenodd" clip-rule="evenodd" d="M10.4858 28.3082L21.6483 39.4062C22.396 40.1496 23.6037 40.1495 24.3513 39.4059L24.3801 39.3773C24.0188 39.338 23.6658 39.196 23.3674 38.9495L10.4858 28.3082ZM38.3544 10.7834C36.5252 9.1584 34.0868 8.16666 31.4093 8.16666C28.3884 8.16666 25.6719 10.9671 23.7914 13.3798C23.3913 13.8932 22.6086 13.8932 22.2085 13.3798C21.0002 11.8296 19.4468 10.1193 17.6893 9.09463C19.5008 10.3842 21.089 12.3249 22.2973 13.8899C23.0329 14.8426 24.4066 14.8444 25.1698 13.9138C26.6599 12.0969 28.5108 10.1986 31.1456 9.84374C33.5442 9.5207 36.1657 9.72487 38.3544 10.7834Z" fill="#D93F3F"/>
<path fill-rule="evenodd" clip-rule="evenodd" d="M4.41122 19.5085C4.89131 20.6514 5.65195 21.6814 6.62287 22.539L20.7831 34.863C21.5046 35.4909 22.5786 35.4908 23.3 34.8628L37.2013 22.7596C39.0813 21.2159 40.2499 19.0529 40.2499 16.6586C40.2499 12.1725 36.1477 8.49899 30.9507 8.18798C31.1027 8.17391 31.2556 8.16666 31.4093 8.16666C37.0858 8.16666 41.6874 12.6241 41.6874 18.1227C41.6874 20.9299 40.488 23.4657 38.5585 25.2756L24.3513 39.4059C23.6037 40.1495 22.396 40.1496 21.6483 39.4062L7.17545 25.0169C5.71391 23.5423 4.71662 21.6327 4.41122 19.5085ZM14.1567 8.17537C16.9869 8.33453 19.5218 10.645 21.2907 12.636C21.4495 12.8146 21.657 12.9221 21.8743 12.9584C20.0131 10.6528 17.4369 8.16666 14.5906 8.16666C14.4452 8.16666 14.3006 8.16958 14.1567 8.17537Z" fill="#D93F3F"/>
<path fill-rule="evenodd" clip-rule="evenodd" d="M5.16519 22.0996C5.60677 22.8023 6.1472 23.4493 6.76975 24.0257L21.708 37.6545C22.4399 38.3223 23.5601 38.3222 24.2918 37.6543L38.9575 24.2692C39.6957 23.6339 40.3296 22.9035 40.8344 22.1002C40.2938 23.3004 39.5161 24.3774 38.5585 25.2756L24.3513 39.4059C23.6038 40.1495 22.396 40.1496 21.6483 39.4062L7.17545 25.0169C6.33914 24.1731 5.65484 23.1869 5.16519 22.0996ZM14.4646 8.16739C15.816 8.18949 17.1069 8.70949 18.2915 9.47692C17.1432 8.68902 15.8953 8.16666 14.5906 8.16666C14.5485 8.16666 14.5065 8.1669 14.4646 8.16739ZM27.7064 9.47827C28.8916 8.71011 30.1832 8.18951 31.5354 8.16739C31.4934 8.1669 31.4514 8.16666 31.4093 8.16666C30.1039 8.16666 28.8553 8.68962 27.7064 9.47827Z" fill="#AE2929"/>
<path d="M18.0127 11.1276C19.8399 13.64 15.4932 13.189 13.2028 16.1665C11.3795 18.5368 9.80447 22.8134 7.50952 20.0797C5.21458 17.3459 5.76503 13.1059 8.73899 10.6093C11.7129 8.11268 16.1804 8.60818 18.0127 11.1276Z" fill="#FF6D6D"/>
<path d="M16.9117 10.9035C17.5832 12.2467 15.0467 11.3124 13.106 13.8137C11.0912 16.4105 8.40489 18.7387 7.11312 16.4105C6.09564 14.4446 7.44877 11.7237 10.1354 10.3331C12.8221 8.94261 16.1729 9.42608 16.9117 10.9035Z" fill="#FF968F"/>
<path d="M35.6766 10.4457C36.8017 11.7959 34.5514 12.696 32.7512 15.3963C31.2839 17.5973 27.3053 20.232 25.7753 17.6465C24.5089 15.5064 25.0767 11.873 28.1011 10.0041C31.1254 8.13519 34.3063 8.80144 35.6766 10.4457Z" fill="#FF6D6D"/>
<path d="M34.5514 10.4458C35.3245 11.4121 33.6513 11.7959 32.0761 13.3711C30.5009 14.9463 27.8533 16.2192 27.0586 14.6838C26.2639 13.1483 27.3207 11.0232 29.4191 9.93707C31.5176 8.85099 33.6513 9.32062 34.5514 10.4458Z" fill="#FF968F"/>
<path d="M31.4001 10.8087C31.6968 11.382 31.3022 12.1754 30.5188 12.581C29.7353 12.9865 28.8596 12.8504 28.5629 12.2772C28.2662 11.7039 28.6608 10.9104 29.4442 10.5049C30.2277 10.0994 31.1034 10.2354 31.4001 10.8087Z" fill="#FFD1CE"/>
<path d="M11.8277 11.4082C12.1297 11.9917 11.728 12.7993 10.9306 13.212C10.1331 13.6248 9.24184 13.4863 8.93984 12.9028C8.63783 12.3193 9.03946 11.5117 9.83691 11.099C10.6344 10.6862 11.5256 10.8247 11.8277 11.4082Z" fill="#FFBFBB"/>
<path fill-rule="evenodd" clip-rule="evenodd" d="M10.7307 11.067C10.849 11.3037 10.7531 11.5915 10.5164 11.7098C10.2609 11.8376 9.4843 12.3517 8.75957 13.2577C8.59425 13.4643 8.29272 13.4978 8.08607 13.3325C7.87942 13.1672 7.84592 12.8656 8.01124 12.659C8.81984 11.6482 9.70438 11.0444 10.0878 10.8527C10.3245 10.7343 10.6123 10.8303 10.7307 11.067Z" fill="#FFEAE9"/>
</svg>
