<svg width="36" height="36" viewBox="0 0 36 36" fill="none" xmlns="http://www.w3.org/2000/svg">
<path d="M14.4387 32.7639C22.2309 34.8257 30.2702 30.0557 32.4162 22.1468C34.5622 14.238 30.0151 6.13769 22.2229 4.07587C14.4307 2.01405 6.39137 6.78403 4.24539 14.6929C2.0994 22.6018 6.64647 30.702 14.4387 32.7639Z" fill="#A56402" stroke="#5B3303" stroke-width="2"/>
<path d="M13.5273 31.8639C21.3195 33.9257 29.3588 29.1557 31.5048 21.2468C33.6508 13.338 29.1037 5.23767 21.3115 3.17584C13.5193 1.11402 5.48003 5.884 3.33402 13.7928C1.18802 21.7017 5.73508 29.802 13.5273 31.8639Z" fill="#FFB423" stroke="#5B3303" stroke-width="2"/>
<path d="M14.2349 29.2559C20.5716 30.9326 27.1095 27.0134 28.8638 20.548C30.6181 14.0827 26.9405 7.46055 20.6038 5.78385C14.2672 4.10717 7.72934 8.02629 5.975 14.4917C4.22069 20.957 7.89826 27.5792 14.2349 29.2559Z" fill="#FFCF23" stroke="#DF8D12" stroke-width="2"/>
<path fill-rule="evenodd" clip-rule="evenodd" d="M25.8789 9.507C24.6269 8.40513 23.1126 7.57245 21.3973 7.11858C15.3198 5.51046 9.02017 9.26661 7.32657 15.5082C6.23368 19.5358 7.32589 23.6142 9.87123 26.4328C6.68732 23.6308 5.19957 19.0881 6.41518 14.6082C8.10878 8.36661 14.4085 4.61046 20.4859 6.21858C22.6416 6.78895 24.4798 7.95765 25.8789 9.507Z" fill="#FFDD65"/>
<path d="M11.4953 8.96985C11.4953 8.96985 10.1283 9.86985 9.21686 11.2198" stroke="white" stroke-linecap="round" stroke-linejoin="round"/>
<path d="M11.8443 18.9062C14.7474 18.9062 16.4051 20.7581 16.4051 23.625C16.4453 24.8169 18.6405 25.0518 18.6832 23.8538C18.6832 20.9869 20.7902 18.9062 23.6932 18.9062C24.3033 18.9062 24.6076 18.225 24.6076 18.0033C24.6076 17.5047 24.6076 16.65 23.4683 16.65C20.5654 16.65 18.6832 15.0196 18.6832 12.1529C18.6832 11.6544 18.0492 10.8 17.5443 10.8C17.0394 10.8 16.8545 11.6544 16.8545 12.1529C16.8545 15.0196 14.0677 17.1003 11.1645 17.1003C9.95759 17.14 10.6311 18.8641 11.8443 18.9062ZM17.7688 15.6282C18.3458 16.618 19.1716 17.4335 20.1739 18.0033C19.1715 18.573 18.3458 19.3886 17.7688 20.3783C17.1919 19.3886 16.366 18.573 15.3636 18.0033C16.366 17.4335 17.1919 16.618 17.7688 15.6282Z" fill="#FFDD65"/>
<path d="M11.3886 18.4562C14.2917 18.4562 16.3988 20.5369 16.3988 23.4038C16.439 24.5956 18.1848 24.6018 18.2275 23.4038C18.2275 20.5369 20.3345 18.4562 23.2375 18.4562C23.7424 18.4562 24.1519 18.0518 24.1519 17.5533C24.1519 17.0547 23.7424 16.6503 23.2375 16.6503C20.3345 16.6503 18.2275 14.5696 18.2275 11.7029C18.2275 11.2044 17.818 10.8 17.3131 10.8C16.8083 10.8 16.3988 11.2044 16.3988 11.7029C16.3988 14.5696 14.2917 16.6503 11.3886 16.6503C10.1816 16.69 10.1754 18.4141 11.3886 18.4562ZM17.3131 15.1782C17.8901 16.168 18.7159 16.9835 19.7182 17.5533C18.7158 18.123 17.8901 18.9386 17.3131 19.9283C16.7362 18.9386 15.9103 18.123 14.9079 17.5533C15.9103 16.9835 16.7362 16.168 17.3131 15.1782Z" fill="#DF8D12"/>
<path d="M21.4177 19.35C21.4177 19.35 19.8228 19.8 19.1393 21.6" stroke="white" stroke-linecap="round" stroke-linejoin="round"/>
</svg>
