<svg width="56" height="56" viewBox="0 0 56 56" fill="none" xmlns="http://www.w3.org/2000/svg">
<g filter="url(#filter0_d_1_567)">
<rect x="4" y="4" width="48" height="48" rx="24" fill="#9A7FFF" shape-rendering="crispEdges"/>
<rect x="5.5" y="5.5" width="45" height="45" rx="22.5" stroke="white" stroke-width="3" shape-rendering="crispEdges"/>
<path d="M20.6376 20.6376C21.321 19.9541 22.429 19.9541 23.1124 20.6376L28 25.5251L32.8876 20.6376C33.571 19.9541 34.679 19.9541 35.3624 20.6376C36.0459 21.321 36.0459 22.429 35.3624 23.1124L30.4749 28L35.3624 32.8876C36.0459 33.571 36.0459 34.679 35.3624 35.3624C34.679 36.0459 33.571 36.0459 32.8876 35.3624L28 30.4749L23.1124 35.3624C22.429 36.0459 21.321 36.0459 20.6376 35.3624C19.9541 34.679 19.9541 33.571 20.6376 32.8876L25.5251 28L20.6376 23.1124C19.9541 22.429 19.9541 21.321 20.6376 20.6376Z" fill="white"/>
</g>
<defs>
<filter id="filter0_d_1_567" x="4" y="4" width="48" height="52" filterUnits="userSpaceOnUse" color-interpolation-filters="sRGB">
<feFlood flood-opacity="0" result="BackgroundImageFix"/>
<feColorMatrix in="SourceAlpha" type="matrix" values="0 0 0 0 0 0 0 0 0 0 0 0 0 0 0 0 0 0 127 0" result="hardAlpha"/>
<feOffset dy="4"/>
<feComposite in2="hardAlpha" operator="out"/>
<feColorMatrix type="matrix" values="0 0 0 0 0 0 0 0 0 0 0 0 0 0 0 0 0 0 0.25 0"/>
<feBlend mode="normal" in2="BackgroundImageFix" result="effect1_dropShadow_1_567"/>
<feBlend mode="normal" in="SourceGraphic" in2="effect1_dropShadow_1_567" result="shape"/>
</filter>
</defs>
</svg>
