<svg width="46" height="47" viewBox="0 0 46 47" fill="none" xmlns="http://www.w3.org/2000/svg">
<path fill-rule="evenodd" clip-rule="evenodd" d="M5.16519 21.0995C5.60677 21.8023 6.1472 22.4493 6.76975 23.0257L21.708 36.6545C22.4399 37.3222 23.5601 37.3221 24.2918 36.6543L38.9575 23.2692C39.6957 22.6338 40.3296 21.9034 40.8344 21.1002C40.2938 22.3004 39.9575 24.1018 39 25L24.2918 38.747C23.5443 39.4905 23.292 40.253 22 39L7.17545 24.0169C6.33914 23.1731 5.65484 22.1869 5.16519 21.0995ZM14.4646 7.16736C15.816 7.18946 17.1069 7.70946 18.2915 8.47689C17.1432 7.68899 15.8953 7.16663 14.5906 7.16663C14.5485 7.16663 14.5065 7.16687 14.4646 7.16736ZM27.7064 8.47824C28.8916 7.71008 30.1832 7.18948 31.5354 7.16736C31.4934 7.16687 31.4514 7.16663 31.4093 7.16663C30.1039 7.16663 28.8553 7.68959 27.7064 8.47824Z" fill="#D1D8FF"/>
<path fill-rule="evenodd" clip-rule="evenodd" d="M6.49982 25.6965L6.49484 25.6915C4.55415 23.7335 3.35416 21.0656 3.35416 18.1227C3.35416 12.0663 8.41388 7.20831 14.5906 7.20831C16.3994 7.20831 18.038 8.04378 19.4145 9.11112C20.7974 10.1835 22.0034 11.5576 22.9644 12.7907C22.97 12.7978 22.9741 12.8003 22.9776 12.802C22.9825 12.8043 22.9902 12.8065 23 12.8065C23.0098 12.8065 23.0175 12.8043 23.0224 12.802C23.0259 12.8003 23.03 12.7978 23.0356 12.7907C23.9966 11.5576 25.2026 10.1835 26.5855 9.11112C27.962 8.04378 29.6006 7.20831 31.4094 7.20831C37.5861 7.20831 42.6458 12.0663 42.6458 18.1227C42.6458 21.2053 41.3294 23.9854 39.2246 25.9648L25.0272 40.0854C23.9058 41.2007 22.0942 41.2009 20.9727 40.0858L6.49982 25.6965ZM38.5 25C40.4295 23.1901 41 20.9299 41 18.1227C41 12.6241 37.0858 8.81017 31.4094 8.81017C28.3885 8.81017 25.8805 11.5872 24 14C23.5999 14.5133 22.4001 14.5133 22 14C20.1194 11.5872 17.6115 9 14.5906 9C8.91416 9 4.99997 12.5014 4.99997 18C4.99997 20.6759 5.91925 22.711 7.69242 24.5L22 39.0546C22.7477 39.798 23.2524 39.7435 24 39L38.5 25Z" fill="#5641BF"/>
</svg>
