<svg width="36" height="36" viewBox="0 0 36 36" fill="none" xmlns="http://www.w3.org/2000/svg">
<g filter="url(#filter0_d_1_570)">
<path d="M17.875 1.02856C9.05722 1.02856 1.875 8.21079 1.875 17.0286C1.875 25.8463 9.05722 33.0286 17.875 33.0286C26.6928 33.0286 33.875 25.8463 33.875 17.0286C33.875 8.21079 26.6928 1.02856 17.875 1.02856ZM17.875 29.473C11.0128 29.473 5.43056 23.8908 5.43056 17.0286C5.43056 10.1663 11.0128 4.58412 17.875 4.58412C24.7372 4.58412 30.3194 10.1663 30.3194 17.0286C30.3194 23.8908 24.7372 29.473 17.875 29.473Z" fill="#1F2024"/>
<path d="M21.2019 13.9499C21.0919 13.8999 21.0037 13.8117 20.9537 13.7016L18.8302 9.02997C18.6525 8.63917 18.0975 8.63917 17.9198 9.02997L15.7963 13.7016C15.7463 13.8117 15.6581 13.8999 15.5481 13.9499L10.8764 16.0734C10.4856 16.251 10.4856 16.8061 10.8764 16.9837L15.5481 19.1072C15.6581 19.1573 15.7463 19.2455 15.7963 19.3555L17.9198 24.0272C18.0975 24.418 18.6525 24.418 18.8302 24.0272L20.9537 19.3555C21.0037 19.2455 21.0919 19.1573 21.2019 19.1072L25.8736 16.9837C26.2644 16.8061 26.2644 16.251 25.8736 16.0734L21.2019 13.9499ZM19.5978 17.5028C19.4876 17.5529 19.3993 17.6412 19.3493 17.7513L18.8303 18.8942C18.6527 19.2852 18.0973 19.2852 17.9197 18.8942L17.4007 17.7513C17.3507 17.6412 17.2624 17.5529 17.1522 17.5028L16.0094 16.9838C15.6183 16.8063 15.6183 16.2509 16.0094 16.0733L17.1522 15.5543C17.2624 15.5043 17.3507 15.416 17.4007 15.3058L17.9197 14.1629C18.0973 13.7719 18.6527 13.7719 18.8303 14.1629L19.3493 15.3058C19.3993 15.416 19.4876 15.5043 19.5978 15.5543L20.7406 16.0733C21.1317 16.2509 21.1317 16.8063 20.7406 16.9838L19.5978 17.5028Z" fill="#1F2024"/>
</g>
<defs>
<filter id="filter0_d_1_570" x="0" y="0" width="36" height="38" filterUnits="userSpaceOnUse" color-interpolation-filters="sRGB">
<feFlood flood-opacity="0" result="BackgroundImageFix"/>
<feColorMatrix in="SourceAlpha" type="matrix" values="0 0 0 0 0 0 0 0 0 0 0 0 0 0 0 0 0 0 127 0" result="hardAlpha"/>
<feOffset dy="2"/>
<feComposite in2="hardAlpha" operator="out"/>
<feColorMatrix type="matrix" values="0 0 0 0 0 0 0 0 0 0 0 0 0 0 0 0 0 0 0.15 0"/>
<feBlend mode="normal" in2="BackgroundImageFix" result="effect1_dropShadow_1_570"/>
<feBlend mode="normal" in="SourceGraphic" in2="effect1_dropShadow_1_570" result="shape"/>
</filter>
</defs>
</svg>
